<?xml version="1.0" encoding="UTF-8" standalone="no"?>
<!-- Created with Inkscape (http://www.inkscape.org/) -->

<svg
   xmlns:dc="http://purl.org/dc/elements/1.1/"
   xmlns:cc="http://creativecommons.org/ns#"
   xmlns:rdf="http://www.w3.org/1999/02/22-rdf-syntax-ns#"
   xmlns:svg="http://www.w3.org/2000/svg"
   xmlns="http://www.w3.org/2000/svg"
   version="1.1"
   width="170"
   height="35"
   id="svg2"
   style="enable-background:new">
  <defs
     id="defs3213">
    <filter
       color-interpolation-filters="sRGB"
       id="filter4553">
      <feBlend
         in2="BackgroundImage"
         mode="lighten"
         id="feBlend4555" />
    </filter>
  </defs>
  <metadata
     id="metadata3216">
    <rdf:RDF>
      <cc:Work
         rdf:about="">
        <dc:format>image/svg+xml</dc:format>
        <dc:type
           rdf:resource="http://purl.org/dc/dcmitype/StillImage" />
        <dc:title></dc:title>
      </cc:Work>
    </rdf:RDF>
  </metadata>
  <path
     d="m 114.29399,1036.9926 8.44228,0 c 3.88764,0 6.90697,-0.871 9.05668,-2.6102 2.14971,-1.7393 3.22325,-4.452 3.22325,-8.1344 0,-3.3772 -0.84461,-6.0124 -2.53255,-7.9042 -1.68793,-1.8932 -4.75858,-2.8405 -9.20929,-2.8405 l -8.98037,0 0,21.4893 z m -4.91249,-25.6334 16.3478,0 c 4.65595,0 8.18574,1.2037 10.59067,3.6061 2.40627,2.4062 3.60873,5.7821 3.60873,10.1315 0,1.6379 -0.18024,3.2219 -0.53809,4.7586 -0.35784,1.534 -0.92092,2.9167 -1.68792,4.1441 -0.76833,1.2275 -1.77872,2.276 -3.03249,3.1457 -1.25378,0.8709 -2.79963,1.484 -4.6428,1.8431 l 0,0.1527 c 3.42717,0.3065 5.81895,1.4708 7.17666,3.4916 1.35509,2.0221 2.08263,5.1822 2.18655,9.4777 l 0.15393,5.986 c 0.05,1.4853 0.20392,2.9299 0.45915,4.3363 0.25655,1.409 0.87093,2.6496 1.84317,3.7245 l -5.75449,0 c -0.56571,-0.9736 -0.9354,-2.1248 -1.11432,-3.4548 -0.18155,-1.3301 -0.2947,-2.7365 -0.34469,-4.2218 l -0.15392,-4.6047 c -0.10388,-2.4036 -0.30785,-4.4244 -0.61572,-6.061 -0.30653,-1.6393 -0.85646,-2.9549 -1.64977,-3.9534 -0.79331,-0.9986 -1.88001,-1.7024 -3.2614,-2.1116 -1.3814,-0.4078 -3.17063,-0.6131 -5.37034,-0.6131 l -9.28822,0 0,25.0204 -4.91249,0 0,-54.7979"
     transform="matrix(0.2663176,0,0,0.2663176,78.102964,-257.65453)"
     id="path3132"
     style="fill:#00adef;fill-opacity:1;fill-rule:nonzero;stroke:none;filter:url(#filter4553)" />
  <path
     d="m 145.45427,1011.3592 27.1674,0 0,4.1441 -22.25622,0 0,19.9553 20.79852,0 0,4.1428 -20.79852,0 0,22.4088 22.94692,0 0,4.1469 -27.8581,0 0,-54.7979"
     transform="matrix(0.2663176,0,0,0.2663176,78.102964,-257.65453)"
     id="path3134"
     style="fill:#00adef;fill-opacity:1;fill-rule:nonzero;stroke:none;filter:url(#filter4553)" />
  <path
     d="m 182.13619,1062.0102 7.98312,0 c 2.65886,0 4.96118,-0.3696 6.90698,-1.1116 1.94315,-0.7407 3.5311,-2.0077 4.75725,-3.7982 1.22878,-1.7906 2.13523,-4.1705 2.72595,-7.1372 0.58676,-2.9667 0.88277,-6.6781 0.88277,-11.1288 0,-4.502 -0.29601,-8.2502 -0.88277,-11.2445 -0.59072,-2.9917 -1.49717,-5.3848 -2.72595,-7.1754 -1.22615,-1.7905 -2.8141,-3.0561 -4.75725,-3.7995 -1.9458,-0.7393 -4.24812,-1.1117 -6.90698,-1.1117 l -7.98312,0 0,46.5069 z m -4.91119,-50.651 13.20085,0 c 3.99026,0 7.26481,0.5867 9.82369,1.7655 2.55886,1.1762 4.5928,2.9154 6.10181,5.2191 1.50769,2.3023 2.54439,5.1664 3.10747,8.5935 0.56308,3.4298 0.84463,7.3675 0.84463,11.8208 0,4.4507 -0.28155,8.391 -0.84463,11.8182 -0.56308,3.4298 -1.59978,6.2938 -3.10747,8.5962 -1.50901,2.3023 -3.54295,4.0415 -6.10181,5.219 -2.55888,1.1762 -5.83343,1.7656 -9.82369,1.7656 l -13.20085,0 0,-54.7979"
     transform="matrix(0.2663176,0,0,0.2663176,78.102964,-257.65453)"
     id="path3136"
     style="fill:#00adef;fill-opacity:1;fill-rule:nonzero;stroke:none;filter:url(#filter4553)" />
  <path
     d="m 216.59602,1011.3592 8.51859,0 13.19954,48.6579 0.15392,0 13.20087,-48.6579 8.05812,0 0,54.7979 -4.9125,0 0,-50.1946 -0.15261,0 -14.19678,50.1946 -4.60727,0 -14.19678,-50.1946 -0.15261,0 0,50.1946 -4.91249,0 0,-54.7979"
     transform="matrix(0.2663176,0,0,0.2663176,78.102964,-257.65453)"
     id="path3138"
     style="fill:#00adef;fill-opacity:1;fill-rule:nonzero;stroke:none;filter:url(#filter4553)" />
  <path
     d="m 266.78532,1066.1571 4.91247,0 0,-54.7979 -4.91247,0 0,54.7979 z"
     transform="matrix(0.2663176,0,0,0.2663176,78.102964,-257.65453)"
     id="path3140"
     style="fill:#00adef;fill-opacity:1;fill-rule:nonzero;stroke:none;filter:url(#filter4553)" />
  <path
     d="m 278.29825,1011.3592 6.60042,0 20.95113,47.737 0.15392,0 0,-47.737 4.9125,0 0,54.7979 -6.60042,0 -20.95245,-47.7384 -0.15393,0 0,47.7384 -4.91117,0 0,-54.7979"
     transform="matrix(0.2663176,0,0,0.2663176,78.102964,-257.65453)"
     id="path3142"
     style="fill:#00adef;fill-opacity:1;fill-rule:nonzero;stroke:none;filter:url(#filter4553)" />
  <path
     d="m 317.20749,1011.3592 27.16871,0 0,4.1441 -22.25754,0 0,19.9553 20.79853,0 0,4.1428 -20.79853,0 0,22.4088 22.94691,0 0,4.1469 -27.85808,0 0,-54.7979"
     transform="matrix(0.2663176,0,0,0.2663176,78.102964,-257.65453)"
     id="path3144"
     style="fill:#00adef;fill-opacity:1;fill-rule:nonzero;stroke:none;filter:url(#filter4553)" />
  <path
     d="m -121.73084,1043.1904 c 0.1434,3.8153 1.28141,6.8557 3.41401,9.1185 2.13657,2.2602 5.12827,3.393 8.97248,3.393 2.20629,0 4.2718,-0.4947 6.19391,-1.4919 1.92079,-0.988 3.310081,-2.5115 4.163911,-4.5691 l 16.90825,0 c -0.85646,3.1969 -2.18655,5.9531 -4.0021,8.2607 -1.80765,2.3155 -3.93893,4.2139 -6.38992,5.7058 -2.45099,1.4919 -5.14668,2.5931 -8.098911,3.3061 -2.94434,0.7078 -5.94394,1.067 -9.0001,1.067 -4.47704,0 -8.57648,-0.6604 -12.30624,-1.9721 -3.7324,-1.3143 -6.92803,-3.2298 -9.59214,-5.7532 -2.66149,-2.5167 -4.72436,-5.6071 -6.18206,-9.2672 -1.45375,-3.6547 -2.1826,-7.7884 -2.1826,-12.4075 0,-4.26 0.78147,-8.1634 2.3431,-11.7168 1.56559,-3.5496 3.71266,-6.6005 6.44914,-9.1567 2.73647,-2.5562 5.91105,-4.5639 9.53556,-6.0189 3.6232,-1.4551 7.4582,-2.1826 11.50766,-2.1826 4.9717,0 9.30401,0.8696 12.999561,2.6075 3.69162,1.7432 6.74778,4.1416 9.16457,7.1977 2.41546,3.0536 4.18627,6.6281 5.32822,10.7117 1.13275,4.085 1.59584,8.4739 1.3814,13.168 l -40.607701,0 z m 22.508811,-10.1565 c -0.14471,-3.1114 -1.207721,-5.7677 -3.200881,-7.9595 -1.99315,-2.1944 -4.51518,-3.293 -7.57398,-3.293 -3.19957,0 -5.81501,1.0275 -7.83974,3.0799 -2.02998,2.0524 -3.32586,4.7796 -3.89421,8.1726 l 22.508811,0"
     transform="matrix(0.2663176,0,0,0.2663176,78.102964,-257.65453)"
     id="path3146"
     style="fill:#231f20;fill-opacity:1;fill-rule:nonzero;stroke:none;filter:url(#filter4553)" />
  <path
     d="m -74.881879,1028.1582 c 0.14078,-3.6232 0.9946,-6.6451 2.56018,-9.0606 1.56164,-2.4128 3.58636,-4.3363 6.07682,-5.7558 2.48782,-1.4209 5.24272,-2.4181 8.26073,-2.9838 3.02065,-0.5684 6.12944,-0.8525 9.32901,-0.8525 3.26403,0 6.44781,0.2302 9.53819,0.6907 3.093,0.4591 5.84659,1.3682 8.25941,2.718 2.4181,1.3498 4.35468,3.2351 5.80975,5.6493 1.4577,2.4115 2.18523,5.5782 2.18523,9.4816 l 0,24.1875 c 0,2.3444 0.0921,4.7415 0.26838,7.1925 0.1763,2.451 0.80122,4.7756 1.86818,6.978 l -18.22519,0 c -0.35652,-0.8525 -0.58544,-1.709 -0.69332,-2.5642 -0.10388,-0.8564 -0.23023,-1.7445 -0.36969,-2.6706 -2.35889,2.4838 -5.16904,4.2415 -8.42255,5.2664 -3.24825,1.0288 -6.55701,1.5458 -9.9184,1.5458 -2.61939,0 -5.0809,-0.3394 -7.38454,-1.0157 -2.29969,-0.6749 -4.30336,-1.701 -6.00445,-3.0864 -1.69846,-1.384 -3.02986,-3.1232 -3.98631,-5.2164 -0.95381,-2.0958 -1.4327,-4.5586 -1.4327,-7.4029 0,-2.9812 0.49994,-5.4664 1.49454,-7.4543 0.99723,-1.9892 2.34968,-3.6206 4.0613,-4.8993 1.70766,-1.2775 3.66528,-2.2708 5.87552,-2.9812 2.20628,-0.7078 4.50334,-1.2788 6.88854,-1.7037 2.38652,-0.425 4.77041,-0.7841 7.15825,-1.0644 2.38257,-0.2828 4.64675,-0.6394 6.77935,-1.0669 1.57085,-0.3526 2.76147,-0.867 3.58374,-1.5419 0.81305,-0.6736 1.22746,-1.8616 1.22746,-3.5653 0,-1.0657 -0.28549,-1.9537 -0.85646,-2.6642 -0.56967,-0.7078 -1.28668,-1.2932 -2.13788,-1.755 -0.85777,-0.4604 -1.80634,-0.7959 -2.83777,-1.0117 -1.03144,-0.2118 -2.01289,-0.3197 -2.94039,-0.3197 -5.2072,0 -8.23838,2.3076 -9.09615,6.9267 l -16.91878,0 z m 15.82024,22.3681 c 0,2.2681 0.74859,3.8837 2.24706,4.8388 1.4998,0.9591 3.2864,1.4353 5.35324,1.4353 4.34941,0 7.34638,-1.2788 8.98958,-3.835 1.63793,-2.5589 2.35495,-6.7109 2.13918,-12.4681 -1.28403,0.7881 -2.97855,1.3446 -5.08352,1.6643 -2.10235,0.3223 -4.15471,0.7696 -6.15181,1.3419 -2.07077,0.4973 -3.83633,1.2393 -5.3006,2.2353 -1.46428,0.9893 -2.19313,2.5878 -2.19313,4.7875"
     transform="matrix(0.2663176,0,0,0.2663176,78.102964,-257.65453)"
     id="path3148"
     style="fill:#231f20;fill-opacity:1;fill-rule:nonzero;stroke:none;filter:url(#filter4553)" />
  <path
     d="m 0.9776508,1048.145 c 0,1.4274 0.26839,2.6325 0.79859,3.6271 0.53018,0.9986 1.25772,1.8498 2.17865,2.5576 0.84857,0.642 1.85632,1.1235 3.02853,1.4406 1.1709,0.3223 2.39442,0.4815 3.6705702,0.4815 0.84988,0 1.7695,-0.1052 2.76278,-0.3171 0.99065,-0.2105 1.91422,-0.5472 2.7641,-1.0064 0.8512,-0.4618 1.559,-1.0564 2.12603,-1.7984 0.5644,-0.7407 0.8512,-1.6446 0.8512,-2.701 0,-1.0591 -0.31969,-1.9208 -0.96039,-2.5931 -0.63545,-0.6736 -1.39981,-1.2209 -2.28522,-1.6458 -0.88673,-0.4197 -1.84712,-0.7394 -2.87198,-0.9499 -1.02881,-0.2118 -1.93264,-0.4249 -2.71411,-0.6367 -2.8377802,-0.7078 -5.7650102,-1.3525 -8.7777602,-1.9195 -3.01539,-0.5683 -5.78082,-1.4419 -8.3002,-2.6141 -2.51678,-1.1749 -4.5704398,-2.7904 -6.1675998,-4.8533 -1.59584,-2.0629 -2.3931,-4.9809 -2.3931,-8.7475 0,-3.343 0.79726,-6.1005 2.39573,-8.27 1.59453,-2.1694 3.6350398,-3.8915 6.1215398,-5.1716 2.4852,-1.2854 5.21904,-2.1853 8.20154,-2.7207 2.97722,-0.5328 5.81764,-0.8012 8.51464,-0.8012 3.0535302,0 6.0531302,0.2684 8.9987802,0.7985 2.94567,0.5329 5.62557,1.4577 8.03972,2.772 2.41283,1.313 4.3823,3.1272 5.90578,5.4361 1.52874,2.3116 2.35889,5.2757 2.50229,8.8989 l -16.76221,0 c 0,-2.1998 -0.7749,-3.7995 -2.33521,-4.7968 -1.4156,-0.9235 -3.32588,-1.3827 -5.73213,-1.3827 -0.7801602,0 -1.6103102,0.036 -2.4957102,0.1079 -0.88541,0.068 -1.71688,0.246 -2.49573,0.5328 -0.77621,0.2842 -1.43138,0.7065 -1.96157,1.2762 -0.53151,0.5683 -0.79595,1.3129 -0.79595,2.2378 0,1.2827 0.67491,2.3471 2.01815,3.1996 1.34982,0.8525 3.03381,1.5471 5.05327,2.0773 2.0207802,0.5355 4.2415402,1.0104 6.6491002,1.4354 2.41284,0.4302 4.65069,0.8551 6.70568,1.2801 2.7641,0.5683 5.05064,1.455 6.86355,2.6601 1.80502,1.2091 3.2443,2.522 4.306,3.9429 1.0617,1.4169 1.8116,2.872 2.23522,4.3626 0.42758,1.4932 0.63939,2.8009 0.63939,3.9389 0,3.6916 -0.79857,6.7965 -2.39704,9.3133 -1.59321,2.5233 -3.64951,4.5441 -6.16627,6.0676 -2.5194,1.5274 -5.35718,2.6259 -8.51334,3.3008 -3.15615,0.6763 -6.29651,1.0157 -9.41715,1.0157 -3.2640402,0 -6.4912402,-0.3039 -9.6829102,-0.9091 -3.19035,-0.6052 -6.04655,-1.6721 -8.56595,-3.1983 -2.51676,-1.5248 -4.5743898,-3.5732 -6.1649598,-6.132 -1.60242,-2.5563 -2.46809,-5.7545 -2.60754,-9.5961 l 17.2331998,0"
     transform="matrix(0.2663176,0,0,0.2663176,78.102964,-257.65453)"
     id="path3150"
     style="fill:#231f20;fill-opacity:1;fill-rule:nonzero;stroke:none;filter:url(#filter4553)" />
  <path
     d="m 74.177021,1071.3274 c -1.06696,3.0588 -2.31548,5.473 -3.73897,7.2504 -1.4156,1.7773 -3.0509,3.1456 -4.89934,4.106 -1.8537,0.9577 -3.96921,1.5813 -6.34652,1.8655 -2.38389,0.2842 -5.10589,0.425 -8.15679,0.425 l -8.53439,0 0,-14.7138 6.29258,0 c 2.05893,0 3.78107,-0.5526 5.16641,-1.6498 1.38797,-1.1038 2.07999,-2.6155 2.07999,-4.5363 0,-0.7117 -0.1934,-1.7445 -0.58019,-3.0916 -0.39469,-1.3499 -0.83673,-2.7365 -1.33666,-4.16 -0.49862,-1.4182 -0.99724,-2.7891 -1.4919,-4.106 -0.49863,-1.3143 -0.89199,-2.3642 -1.17353,-3.143 l -14.2915,-38.4962 19.20399,0 10.44334,36.0425 0.21181,0 10.43412,-36.0425 18.57513,0 -21.85758,60.2498"
     transform="matrix(0.2663176,0,0,0.2663176,78.102964,-257.65453)"
     id="path3152"
     style="fill:#231f20;fill-opacity:1;fill-rule:nonzero;stroke:none;filter:url(#filter4553)" />
  <path
     d="m -258.05895,1032.8944 c 0,12.3326 7.77961,22.1734 20.4116,25.5519 l 0,-50.3762 c -12.92497,3.5232 -20.4116,12.6339 -20.4116,24.8243"
     transform="matrix(0.2663176,0,0,0.2663176,78.102964,-257.65453)"
     id="path3154"
     style="fill:#00adef;fill-opacity:1;fill-rule:nonzero;stroke:none;filter:url(#filter4553)" />
  <path
     d="m -200.9294,1062.1155 c -7.7871,7.4924 -18.65656,11.751 -29.22975,11.751 -11.16218,0 -20.85456,-3.8284 -28.78678,-11.1669 -8.66502,-7.92 -12.92484,-17.912 -12.92484,-29.375 0,-13.8073 6.60727,-26.2846 18.35897,-34.06507 7.19877,-4.7112 15.56896,-6.7662 26.43552,-6.7662 l 2.20827,0 0,66.39497 c 13.35977,-2.3563 22.17438,-12.9338 22.17438,-25.8544 0,-9.404 -4.70068,-17.4714 -12.92655,-22.0247 l 0,-16.01487 c 17.62328,7.34897 27.02597,20.85237 27.02597,38.03957 0,11.6089 -4.11524,21.2984 -12.33519,29.0816 z m -29.29974,-79.73137 c -28.01268,0 -50.80211,22.78637 -50.80211,50.79447 0,28.0094 22.78943,50.7984 50.80211,50.7984 28.00781,0 50.79685,-22.789 50.79685,-50.7984 0,-28.0081 -22.78904,-50.79447 -50.79685,-50.79447"
     transform="matrix(0.2663176,0,0,0.2663176,78.102964,-257.65453)"
     id="path3156"
     style="fill:#00adef;fill-opacity:1;fill-rule:nonzero;stroke:none;filter:url(#filter4553)" />
  <path
     d="m -230.22914,1083.977 c -28.01268,0 -50.80211,-22.789 -50.80211,-50.7984 0,-28.0081 22.78943,-50.79447 50.80211,-50.79447 28.00781,0 50.79685,22.78637 50.79685,50.79447 0,28.0094 -22.78904,50.7984 -50.79685,50.7984 z m 0,-113.82937 c -34.7619,0 -63.04086,28.2712 -63.04086,63.03097 0,34.7598 28.27896,63.0376 63.04086,63.0376 34.75823,0 63.03205,-28.2778 63.03205,-63.0376 0,-34.75977 -28.27382,-63.03097 -63.03205,-63.03097"
     transform="matrix(0.2663176,0,0,0.2663176,78.102964,-257.65453)"
     id="path3158"
     style="fill:#231f20;fill-opacity:1;fill-rule:nonzero;stroke:none;filter:url(#filter4553)" />
  <path
     d="m -238.1697,55.131735 c -7.69203,-1.268521 -16.94254,-6.281136 -22.462,-12.171579 -11.19398,-11.946381 -13.71572,-29.663962 -6.3615,-44.695447 6.49179,-13.268741 17.66311,-20.690541 32.99605,-21.921322 l 8.94763,-0.71823 0,32.7205329 c 0,35.8073021 -0.1867,35.1079071 8.20195,30.7254671 8.51896,-4.450512 14.46278,-14.371206 14.3944,-24.025366 -0.0436,-6.1563572 -4.70759,-15.73914034 -9.04282,-18.5796972 -3.18046,-2.0839172 -3.65404,-3.3812149 -3.65404,-10.0097428 0,-4.188539 0.52438,-7.615526 1.16528,-7.615526 0.64091,0 4.09496,2.082924 7.67568,4.62872 12.24423,8.7053328 16.64726,17.14861903 16.55281,31.741856 -0.11282,17.433318 -6.87326,28.578561 -21.58442,35.584054 -10.01541,4.769363 -17.18057,5.927443 -26.82902,4.33628 z m 0.39225,-39.453088 0,-25.3875738 -4.47456,1.8814117 c -7.33867,3.0856825 -13.57593,10.2166083 -15.07208,17.2316081 -1.50715,7.066538 -0.0793,15.725165 3.4918,21.175428 2.08156,3.17687 12.4822,10.441635 14.99418,10.473322 0.58337,0.0074 1.06066,-11.41103 1.06066,-25.374196 l 0,0 z"
     transform="matrix(0.2663176,0,0,0.2663176,78.102964,13.286929)"
     id="path4522"
     style="fill:#ffffff;fill-opacity:1;stroke:#ffffff;stroke-width:1.41421354;stroke-opacity:1;filter:url(#filter4553)" />
</svg>
