<svg version="1" xmlns="http://www.w3.org/2000/svg" width="401.333" height="401.333" viewBox="0 0 301.000000 301.000000"><path d="M131.5 1.6c-30.6 4.6-55.3 15.6-78.6 35-24.1 20-42.9 51.7-49.4 83-7 34.1-1.7 72.2 14.3 101.4 13.7 25.1 34.8 46.7 59.4 60.6 42.4 24 96.2 25.3 140 3.4 41.4-20.7 69.7-57.2 80-103.1 2-9.1 2.3-13.1 2.3-31.4 0-18.4-.3-22.3-2.3-31.5-8.8-39.3-31.9-72.7-65.2-94.3-15.2-9.8-30.2-16.2-48-20.4-8.9-2.1-13.5-2.5-30-2.8-10.7-.2-20.8-.1-22.5.1zm33.3 128.1c.2 71.2.5 90.3 1.5 90.3 2.6 0 11.8-2.9 17.2-5.4 27.7-12.7 43.9-41.6 40.4-72.1-1.2-10.8-3.9-19-9.1-28-4.5-7.6-15.2-18.8-21.1-22l-3.7-2V68.8c0-14.2.4-21.8 1-21.8s4.7 1.9 9.3 4.1c42.8 21.6 65.4 58.9 63.4 104.9-1.2 27.3-10.6 49.3-29.2 68.9-35.6 37.4-89.5 47.7-135 25.6-23.7-11.4-46-34.7-54.6-56.9-6.5-16.8-7.3-21.4-7.3-41.6 0-16.8.2-19.4 2.6-28.2 8.2-30.2 25.6-53.2 52.2-69.2 16-9.6 41.9-15.7 65.1-15.2l7 .1.3 90.2z"/><path d="M119.3 86.3c-22.5 9.2-37.9 26.1-42.9 47.2-2.1 9.2-2.2 26 0 34.5 4 16.1 14.8 31.3 28.6 40.5 6.6 4.4 19.8 10.5 22.6 10.5 1.2 0 1.4-11.3 1.4-68 0-37.4-.3-68-.7-68-.5 0-4.5 1.5-9 3.3z"/></svg>