<svg id="Vrstva_1" data-name="Vrstva 1" xmlns="http://www.w3.org/2000/svg" viewBox="0 0 232.65 43.51">
  <defs>
    <style>
      .cls-1 {
        fill: #ae1400;
      }

      .cls-2 {
        fill: #50596f;
      }

      .cls-3 {
        fill: #fff;
      }
    </style>
  </defs>
  <title>Logo Easy Redmine 2017</title>
  <path class="cls-1" d="M232.65,31.22V29.91a0.28,0.28,0,0,0-.28-0.31h-5c-2.74,0-3.18-.72-3.18-2.69V22.56h7.94a0.52,0.52,0,0,0,.52-0.52v-1a0.52,0.52,0,0,0-.52-0.52H224.2V17c0-2,.44-2.69,3.18-2.69h5a0.28,0.28,0,0,0,.28-0.31V12.66a0.37,0.37,0,0,0-.26-0.36c-1.09-.1-3.52-0.16-5-0.16-3.62,0-5.51,1.37-5.51,4.81v10c0,3.44,1.89,4.81,5.51,4.81,1.53,0,4.06,0,5-.13a0.37,0.37,0,0,0,.26-0.36m-14.27-.44v-18a0.47,0.47,0,0,0-.47-0.49h-1.37a0.49,0.49,0,0,0-.47.49V27.94s0,0.08,0,.08L216,27.94l-7.94-15.1a0.89,0.89,0,0,0-1.06-.52h-1.42a0.73,0.73,0,0,0-.75.72V31.22c0,0.26.21,0.31,0.47,0.31h1.34a0.49,0.49,0,0,0,.47-0.49V15.95c0-.05,0-0.08,0-0.08a0.11,0.11,0,0,1,.08.08l8,15.18a0.86,0.86,0,0,0,.83.41h1.6a0.75,0.75,0,0,0,.75-0.75M201.26,31V12.82a0.47,0.47,0,0,0-.47-0.49h-1.42a0.47,0.47,0,0,0-.47.49V31a0.49,0.49,0,0,0,.47.52h1.42a0.49,0.49,0,0,0,.47-0.52m-6,0V13.08a0.75,0.75,0,0,0-.75-0.75h-1.68a0.74,0.74,0,0,0-.83.44l-4.27,8.87a0.31,0.31,0,0,1-.62,0l-4.27-8.87a0.74,0.74,0,0,0-.83-0.44h-1.68a0.75,0.75,0,0,0-.75.75V31a0.52,0.52,0,0,0,.52.52h1.27a0.52,0.52,0,0,0,.52-0.52V15.69c0-.05,0-0.08,0-0.08s0,0,.05.05l3.7,7.65a1.11,1.11,0,0,0,1.16.75h1.19a1.11,1.11,0,0,0,1.16-.75l3.7-7.65c0-.05,0-0.05.05-0.05s0,0,0,.08V31a0.52,0.52,0,0,0,.52.52h1.27A0.52,0.52,0,0,0,195.3,31m-21-7.34c0,4.65-2.38,6-5.48,6-1.22,0-2,0-2.87-.05V14.24c0.85-.05,1.65-0.08,2.87-0.08,3.1,0,5.48,1.34,5.48,6v3.49Zm2.35,0V20.19c0-5.58-3.05-8-7.83-8a36.58,36.58,0,0,0-4.71.26,0.61,0.61,0,0,0-.54.65V30.81a0.59,0.59,0,0,0,.54.65,36.4,36.4,0,0,0,4.71.26c4.78,0,7.83-2.51,7.83-8m-15.89,7.55V29.91a0.28,0.28,0,0,0-.28-0.31h-5c-2.74,0-3.18-.72-3.18-2.69V22.56h7.94a0.52,0.52,0,0,0,.52-0.52v-1a0.52,0.52,0,0,0-.52-0.52h-7.94V17c0-2,.44-2.69,3.18-2.69h5a0.28,0.28,0,0,0,.28-0.31V12.66a0.37,0.37,0,0,0-.26-0.36c-1.09-.1-3.52-0.16-5-0.16-3.62,0-5.51,1.37-5.51,4.81v10c0,3.44,1.89,4.81,5.51,4.81,1.53,0,4.06,0,5-.13a0.37,0.37,0,0,0,.26-0.36M144.65,17.88c0,2.79-1.73,3.59-4.91,3.59-0.59,0-1.71,0-2.84-.05V14.34c0.62-.08,2-0.08,2.84-0.08,3.23,0,4.91.85,4.91,3.44v0.18ZM147.7,31.2a0.41,0.41,0,0,0-.08-0.23l-4.71-7.86A5.09,5.09,0,0,0,147,17.88V17.7c0-4.19-3.15-5.56-7.24-5.56-1.5,0-3.44.08-4.55,0.21-0.47.05-.62,0.21-0.62,0.57V31a0.49,0.49,0,0,0,.47.52h1.4a0.49,0.49,0,0,0,.47-0.52v-7.6c1.37,0.05,2,.08,2.84.08h0.67L145,31.2a0.61,0.61,0,0,0,.67.34h1.65a0.33,0.33,0,0,0,.34-0.34"/>
  <path class="cls-2" d="M123.79,12q-0.37,1.45-.84,3.14t-1,3.42q-0.5,1.73-1,3.36t-1,3q-0.52-1.34-1.1-3t-1.14-3.36q-0.56-1.73-1.06-3.42T115.77,12H109.9a103.71,103.71,0,0,0,3.57,10.39q1.9,4.63,3.79,8.34a6.45,6.45,0,0,1-1.36,2.21,3.1,3.1,0,0,1-2.29.8,8.58,8.58,0,0,1-1.41-.11,9.46,9.46,0,0,1-1.52-.41l-1,4.42a10.76,10.76,0,0,0,1.8.54,11.19,11.19,0,0,0,2.4.24,9.53,9.53,0,0,0,2.74-.35,6,6,0,0,0,2.1-1.11A8.78,8.78,0,0,0,120.47,35,21.72,21.72,0,0,0,122,32.17q2.16-4.64,4-9.59T129.52,12h-5.73ZM97.53,27.24a18.09,18.09,0,0,1-2.9-.87l-0.93,4.5a17.34,17.34,0,0,0,6.73,1.19,10.85,10.85,0,0,0,6.15-1.48,5,5,0,0,0,2.17-4.38,7.47,7.47,0,0,0-.28-2.15,4.37,4.37,0,0,0-1-1.69,7.21,7.21,0,0,0-1.88-1.42,22.76,22.76,0,0,0-3-1.33q-0.89-.34-1.47-0.62a6.25,6.25,0,0,1-.91-0.52A1.27,1.27,0,0,1,99.8,18a1.5,1.5,0,0,1-.11-0.59q0-1.45,2.6-1.45a11.4,11.4,0,0,1,2.55.26,20.35,20.35,0,0,1,2.1.59l1-4.31a15.89,15.89,0,0,0-2.6-.69,18,18,0,0,0-3.42-.32,8.89,8.89,0,0,0-5.61,1.6,5.23,5.23,0,0,0-2,4.35,6.39,6.39,0,0,0,.41,2.42,5,5,0,0,0,1.15,1.73,6.92,6.92,0,0,0,1.8,1.25,25.56,25.56,0,0,0,2.36,1,15.6,15.6,0,0,1,2.49,1.13,1.41,1.41,0,0,1,.82,1.17,1.15,1.15,0,0,1-.63,1.15,5.52,5.52,0,0,1-2.16.3,14.06,14.06,0,0,1-2.94-.32M80.33,11.56q-0.95.09-1.8,0.22t-1.58.3q-0.72.17-1.21,0.32l0.71,4.46a12,12,0,0,1,2.38-.58,19,19,0,0,1,2.79-.2,4.14,4.14,0,0,1,3,.85,3.07,3.07,0,0,1,.85,2.27v0.52a8.56,8.56,0,0,0-1.36-.24,17.61,17.61,0,0,0-1.91-.09,14.82,14.82,0,0,0-3.08.32,8.32,8.32,0,0,0-2.64,1,5.3,5.3,0,0,0-1.84,1.89,5.71,5.71,0,0,0-.69,2.9,6.86,6.86,0,0,0,.59,3,5,5,0,0,0,1.71,2,7.46,7.46,0,0,0,2.66,1.1,16.25,16.25,0,0,0,3.44.33,31.73,31.73,0,0,0,5.13-.35q2.12-.35,3.31-0.61V19.46a12.46,12.46,0,0,0-.41-3.31,5.88,5.88,0,0,0-1.39-2.53A6.34,6.34,0,0,0,86.33,12a12.82,12.82,0,0,0-4.09-.56q-1,0-1.91.09m0,15.61a1.9,1.9,0,0,1-.87-1.8,2,2,0,0,1,.3-1.12,2.06,2.06,0,0,1,.82-0.71,3.84,3.84,0,0,1,1.21-.35,11,11,0,0,1,1.47-.09,11.37,11.37,0,0,1,1.23.07q0.67,0.08,1,.15v4.2a10.68,10.68,0,0,1-1.19.11q-0.74,0-1.56,0a4.83,4.83,0,0,1-2.4-.5M59.24,19.79a7.9,7.9,0,0,1,.35-1.39,3.73,3.73,0,0,1,.69-1.21,3.31,3.31,0,0,1,1.12-.84A3.71,3.71,0,0,1,63,16a3.51,3.51,0,0,1,1.62.33,3.37,3.37,0,0,1,1.08.85,3.44,3.44,0,0,1,.63,1.19,5.77,5.77,0,0,1,.24,1.38H59.24Zm-5.07,6.13a8.47,8.47,0,0,0,1.9,3.21,8.93,8.93,0,0,0,3.23,2.14,12.32,12.32,0,0,0,4.59.78A19.52,19.52,0,0,0,66,31.94q1-.11,2-0.28a15.54,15.54,0,0,0,1.65-.39,7.76,7.76,0,0,0,1.19-.45L70,26.33a11.22,11.22,0,0,1-2.4.69,16,16,0,0,1-3,.28,6.43,6.43,0,0,1-3.79-1,3.68,3.68,0,0,1-1.6-2.71H71.8q0-.45.07-1t0-1.06q0-4.94-2.42-7.49a8.64,8.64,0,0,0-6.58-2.55,9.38,9.38,0,0,0-3.47.67,8.74,8.74,0,0,0-3,2,9.76,9.76,0,0,0-2.1,3.25,12,12,0,0,0-.8,4.55,12.74,12.74,0,0,0,.61,4"/>
  <path class="cls-1" d="M21.76,43.51A21.76,21.76,0,1,0,0,21.76,21.76,21.76,0,0,0,21.76,43.51"/>
  <path class="cls-3" d="M18.79,31.77V11.84c-5.09,1.38-8.06,5-8.06,9.84s3.07,8.75,8.06,10.09M38.22,21.68a15.1,15.1,0,0,1-4.9,11.52,16.91,16.91,0,0,1-11.57,4.65,16.38,16.38,0,0,1-11.37-4.4A15.19,15.19,0,0,1,5.29,21.83a16.06,16.06,0,0,1,7.27-13.5C15.43,6.45,18.74,5.66,23,5.66h0.89V31.92a10.22,10.22,0,0,0,8.75-10.24A9.75,9.75,0,0,0,27.54,13V6.65c7,2.92,10.68,8.26,10.68,15"/>
</svg>
