<?xml version="1.0" encoding="UTF-8" standalone="no"?>
<!-- Created with Inkscape (http://www.inkscape.org/) -->

<svg
   xmlns:dc="http://purl.org/dc/elements/1.1/"
   xmlns:cc="http://creativecommons.org/ns#"
   xmlns:rdf="http://www.w3.org/1999/02/22-rdf-syntax-ns#"
   xmlns:svg="http://www.w3.org/2000/svg"
   xmlns="http://www.w3.org/2000/svg"
   xmlns:sodipodi="http://sodipodi.sourceforge.net/DTD/sodipodi-0.dtd"
   xmlns:inkscape="http://www.inkscape.org/namespaces/inkscape"
   width="170"
   height="35"
   id="svg2"
   inkscape:label="Pozadí"
   version="1.1"
   inkscape:version="0.48.4 r9939"
   sodipodi:docname="logo_ep.svg"
   enable-background="new">
  <defs
     id="defs3213" />
  <sodipodi:namedview
     id="base"
     pagecolor="#ffffff"
     bordercolor="#666666"
     borderopacity="1.0"
     inkscape:pageopacity="0"
     inkscape:pageshadow="2"
     inkscape:zoom="11.313709"
     inkscape:cx="99.696783"
     inkscape:cy="30.402428"
     inkscape:document-units="px"
     inkscape:current-layer="layer1"
     showgrid="false"
     borderlayer="false"
     showborder="true"
     inkscape:showpageshadow="true"
     inkscape:snap-page="false"
     inkscape:window-width="1920"
     inkscape:window-height="1034"
     inkscape:window-x="0"
     inkscape:window-y="0"
     inkscape:window-maximized="1" />
  <metadata
     id="metadata3216">
    <rdf:RDF>
      <cc:Work
         rdf:about="">
        <dc:format>image/svg+xml</dc:format>
        <dc:type
           rdf:resource="http://purl.org/dc/dcmitype/StillImage" />
        <dc:title></dc:title>
      </cc:Work>
    </rdf:RDF>
  </metadata>
  <g
     inkscape:label="Vrstva 1"
     inkscape:groupmode="layer"
     id="layer1"
     transform="translate(0,-1017.3622)">
    <path
       inkscape:connector-curvature="0"
       id="path3070"
       style="fill:#00adef;fill-opacity:1;fill-rule:nonzero;stroke:none"
       d="m 108.06019,1036.1964 2.21848,0 c 0.41998,0 0.82042,-0.049 1.20028,-0.15 0.37951,-0.1011 0.70845,-0.272 0.9868,-0.5092 0.27766,-0.2373 0.49846,-0.5512 0.66136,-0.9349 0.1629,-0.3872 0.24452,-0.8581 0.24452,-1.4162 0,-1.0987 -0.26161,-1.8766 -0.78379,-2.3301 -0.52253,-0.4534 -1.29202,-0.6801 -2.30917,-0.6801 l -2.21848,0 0,6.0205 z m -1.30213,-7.1193 3.92698,0 c 0.69205,0 1.28888,0.098 1.79118,0.293 0.5016,0.1988 0.91529,0.4744 1.24109,0.8372 0.32545,0.3592 0.56613,0.7917 0.72205,1.301 0.15592,0.5093 0.2344,1.0674 0.2344,1.6778 0,0.5581 -0.075,1.0849 -0.22393,1.5872 -0.14965,0.5023 -0.39696,0.9383 -0.74299,1.3115 -0.34602,0.3732 -0.80332,0.6697 -1.37329,0.886 -0.56997,0.2163 -1.2683,0.3244 -2.09569,0.3244 l -2.17767,0 0,6.3101 -1.30213,0 0,-14.5282" />
    <path
       inkscape:connector-curvature="0"
       id="path3072"
       style="fill:#00adef;fill-opacity:1;fill-rule:nonzero;stroke:none"
       d="m 117.21699,1035.872 2.23836,0 c 1.03076,0 1.83164,-0.2302 2.40091,-0.6906 0.56997,-0.4605 0.8546,-1.1825 0.8546,-2.1592 0,-0.893 -0.22324,-1.5941 -0.67147,-2.0929 -0.44753,-0.5023 -1.26167,-0.7534 -2.44137,-0.7534 l -2.38103,0 0,5.6961 z m -1.30213,-6.7949 4.3344,0 c 1.23376,0 2.16999,0.3174 2.80763,0.9557 0.63764,0.6384 0.9561,1.5313 0.9561,2.6859 0,0.4326 -0.0471,0.8546 -0.14231,1.2627 -0.0949,0.4047 -0.24418,0.7709 -0.44719,1.0988 -0.20371,0.3244 -0.47194,0.6035 -0.80402,0.8337 -0.33277,0.2302 -0.74228,0.3942 -1.23133,0.4883 l 0,0.038 c 0.90902,0.084 1.54317,0.3907 1.9028,0.9279 0.35928,0.5336 0.55253,1.3743 0.57974,2.5114 l 0.0408,1.5872 c 0.0133,0.3941 0.0544,0.7778 0.12243,1.1511 0.0677,0.3732 0.23022,0.7011 0.488,0.9871 l -1.52573,0 c -0.14929,-0.2581 -0.24766,-0.5651 -0.29509,-0.9174 -0.0478,-0.3523 -0.0781,-0.7255 -0.0917,-1.1162 l -0.0405,-1.2243 c -0.0275,-0.6349 -0.0813,-1.1721 -0.16324,-1.6046 -0.0816,-0.436 -0.22708,-0.7849 -0.43742,-1.0499 -0.21034,-0.2652 -0.49846,-0.45 -0.86472,-0.5582 -0.3666,-0.1081 -0.841,-0.1639 -1.42422,-0.1639 l -2.4623,0 0,6.6345 -1.30213,0 0,-14.5282" />
    <path
       inkscape:connector-curvature="0"
       id="path3074"
       style="fill:#00adef;fill-opacity:1;fill-rule:nonzero;stroke:none"
       d="m 126.65877,1036.3395 c 0,1.1824 0.0778,2.1766 0.23371,2.9928 0.15592,0.8127 0.37672,1.4755 0.66136,1.9848 0.28498,0.5057 0.63414,0.872 1.04819,1.0987 0.4137,0.2233 0.87798,0.3349 1.39353,0.3349 0.51555,0 0.98017,-0.1116 1.39387,-0.3349 0.4137,-0.2267 0.76356,-0.593 1.0482,-1.0987 0.28463,-0.5093 0.50508,-1.1721 0.66101,-1.9848 0.15626,-0.8162 0.23405,-1.8104 0.23405,-2.9928 0,-1.1791 -0.0778,-2.1767 -0.23405,-2.9894 -0.15593,-0.8162 -0.37638,-1.4755 -0.66101,-1.9848 -0.28464,-0.5093 -0.6345,-0.8755 -1.0482,-1.0988 -0.4137,-0.2232 -0.87832,-0.3348 -1.39387,-0.3348 -0.51555,0 -0.97983,0.1116 -1.39353,0.3348 -0.41404,0.2233 -0.76321,0.5895 -1.04819,1.0988 -0.28464,0.5093 -0.50544,1.1686 -0.66136,1.9848 -0.15592,0.8127 -0.23371,1.8103 -0.23371,2.9894 z m -1.30248,0 c 0,-2.6022 0.40009,-4.5068 1.20098,-5.7067 0.79983,-1.1999 1.9464,-1.7999 3.43829,-1.7999 1.47863,0 2.62171,0.6 3.42887,1.7999 0.80681,1.1999 1.21075,3.1045 1.21075,5.7067 0,2.6056 -0.40394,4.5067 -1.21075,5.7066 -0.80716,1.2034 -1.95024,1.8034 -3.42887,1.8034 -1.49189,0 -2.63846,-0.6 -3.43829,-1.8034 -0.80089,-1.1999 -1.20098,-3.101 -1.20098,-5.7066" />
    <path
       inkscape:connector-curvature="0"
       id="path3076"
       style="fill:#00adef;fill-opacity:1;fill-rule:nonzero;stroke:none"
       d="m 135.42873,1039.3532 1.30214,0 0,0.3453 c 0,0.9907 0.13918,1.7476 0.41718,2.2674 0.27801,0.5232 0.78345,0.7848 1.51596,0.7848 0.35265,0 0.66799,-0.045 0.94599,-0.1325 0.27836,-0.087 0.51207,-0.2442 0.70217,-0.4675 0.18976,-0.2232 0.33243,-0.5232 0.42766,-0.8964 0.0942,-0.3733 0.14231,-0.8511 0.14231,-1.4337 l 0,-10.7435 1.30214,0 0,10.8865 c 0,1.2732 -0.28848,2.2395 -0.86472,2.8987 -0.5766,0.6593 -1.44167,0.9872 -2.59415,0.9872 -1.04506,0 -1.85536,-0.3 -2.43196,-0.8965 -0.57659,-0.5965 -0.86472,-1.6011 -0.86472,-3.0103 l 0,-0.5895" />
    <path
       inkscape:connector-curvature="0"
       id="path3078"
       style="fill:#00adef;fill-opacity:1;fill-rule:nonzero;stroke:none"
       d="m 143.85267,1029.0771 7.20342,0 0,1.0988 -5.90129,0 0,5.288 5.51445,0 0,1.0988 -5.51445,0 0,5.9439 6.08442,0 0,1.0987 -7.38655,0 0,-14.5282" />
    <path
       inkscape:connector-curvature="0"
       id="path3080"
       style="fill:#00adef;fill-opacity:1;fill-rule:nonzero;stroke:none"
       d="m 161.1083,1038.68 c -0.0952,1.6813 -0.50892,2.9649 -1.24144,3.8474 -0.73252,0.8826 -1.75699,1.3221 -3.07273,1.3221 -1.49259,0 -2.6388,-0.6 -3.43899,-1.8034 -0.80053,-1.1999 -1.20028,-3.101 -1.20028,-5.7066 0,-2.6022 0.39975,-4.5068 1.20028,-5.7067 0.80019,-1.1999 1.9464,-1.7999 3.43899,-1.7999 0.73252,0 1.36353,0.1221 1.89233,0.3663 0.52916,0.2441 0.96274,0.5685 1.30249,0.9767 0.3387,0.4046 0.58636,0.8789 0.74228,1.4231 0.15627,0.5442 0.23406,1.1128 0.23406,1.7092 l -1.30214,0 c 0,-0.9906 -0.24417,-1.7999 -0.73252,-2.4312 -0.48834,-0.6314 -1.20062,-0.9453 -2.1365,-0.9453 -0.51555,0 -0.98052,0.1116 -1.39422,0.3348 -0.4137,0.2233 -0.76286,0.5895 -1.0475,1.0988 -0.28498,0.5093 -0.50543,1.1686 -0.66171,1.9848 -0.15592,0.8127 -0.2337,1.8103 -0.2337,2.9894 0,1.1824 0.0778,2.1766 0.2337,2.9928 0.15628,0.8127 0.37673,1.4755 0.66171,1.9848 0.28464,0.5057 0.6338,0.872 1.0475,1.0987 0.4137,0.2233 0.87867,0.3349 1.39422,0.3349 0.93588,0 1.65479,-0.3593 2.15673,-1.0778 0.5016,-0.7186 0.78694,-1.7162 0.85496,-2.9929 l 1.30248,0" />
    <path
       inkscape:connector-curvature="0"
       id="path3082"
       style="fill:#00adef;fill-opacity:1;fill-rule:nonzero;stroke:none"
       d="m 164.95331,1030.1759 -3.74385,0 0,-1.0988 8.79054,0 0,1.0988 -3.7442,0 0,13.4294 -1.30249,0 0,-13.4294" />
    <path
       inkscape:connector-curvature="0"
       id="path3084"
       style="fill:#231f20;fill-opacity:1;fill-rule:nonzero;stroke:none"
       d="m 45.481007,1037.515 c 0.03837,1.0115 0.339746,1.8173 0.905527,2.4173 0.566483,0.5999 1.359692,0.8999 2.378933,0.8999 0.584618,0 1.132611,-0.1291 1.642233,-0.3942 0.509272,-0.2616 0.877971,-0.6662 1.104005,-1.2138 l 4.482997,0 c -0.227079,0.8511 -0.579385,1.5801 -1.060751,2.194 -0.479627,0.6105 -1.044707,1.1162 -1.694554,1.5104 -0.649848,0.3977 -1.364921,0.6872 -2.146969,0.8755 -0.781002,0.1884 -1.576653,0.2861 -2.386606,0.2861 -1.187025,0 -2.274289,-0.1779 -3.262836,-0.5233 -0.989943,-0.3488 -1.836874,-0.858 -2.543228,-1.5243 -0.706006,-0.6697 -1.252601,-1.4894 -1.63909,-2.4592 -0.385443,-0.9697 -0.578688,-2.0649 -0.578688,-3.2893 0,-1.1302 0.207197,-2.1661 0.621592,-3.108 0.415093,-0.9418 0.984012,-1.751 1.709901,-2.4277 0.725191,-0.6767 1.566889,-1.2104 2.527879,-1.5941 0.960643,-0.3872 1.977445,-0.5791 3.051103,-0.5791 1.31818,0 2.466834,0.2302 3.44666,0.6907 0.978784,0.4639 1.789084,1.0988 2.429863,1.908 0.640427,0.8093 1.110281,1.7581 1.41236,2.8394 0.300681,1.0848 0.423463,2.2499 0.366257,3.4917 l -10.766588,0 z m 5.967911,-2.6929 c -0.03767,-0.8232 -0.319864,-1.5278 -0.848323,-2.1103 -0.528458,-0.5791 -1.197487,-0.8721 -2.00814,-0.8721 -0.848324,0 -1.541773,0.2721 -2.078603,0.8163 -0.538222,0.5441 -0.881807,1.2661 -1.032845,2.1661 l 5.967911,0" />
    <path
       inkscape:connector-curvature="0"
       id="path3086"
       style="fill:#231f20;fill-opacity:1;fill-rule:nonzero;stroke:none"
       d="m 57.902732,1033.5315 c 0.03697,-0.9628 0.263705,-1.7616 0.67845,-2.4034 0.414395,-0.6418 0.951223,-1.1511 1.611538,-1.5278 0.659259,-0.3767 1.389687,-0.6383 2.190219,-0.7883 0.800886,-0.1535 1.62514,-0.2268 2.473463,-0.2268 0.865417,0 1.709551,0.059 2.528577,0.1849 0.820415,0.1186 1.55084,0.3593 2.19022,0.7186 0.640779,0.3558 1.154935,0.8581 1.540725,1.4964 0.386489,0.6418 0.579387,1.479 0.579387,2.515 l 0,6.4147 c 0,0.6209 0.02373,1.2558 0.07116,1.9046 0.0464,0.6522 0.211733,1.2662 0.495321,1.8522 l -4.832161,0 c -0.09488,-0.2267 -0.155574,-0.4535 -0.184527,-0.6802 -0.02721,-0.2267 -0.06069,-0.464 -0.09802,-0.7081 -0.625428,0.6558 -1.370502,1.1232 -2.232432,1.3952 -0.861578,0.2721 -1.738504,0.4117 -2.630079,0.4117 -0.694497,0 -1.346783,-0.091 -1.957913,-0.2721 -0.610079,-0.1779 -1.140978,-0.45 -1.591999,-0.8162 -0.450325,-0.3698 -0.803327,-0.8302 -1.056567,-1.3849 -0.25359,-0.5546 -0.380559,-1.2069 -0.380559,-1.9603 0,-0.7918 0.1329,-1.4511 0.396952,-1.9778 0.264055,-0.5267 0.622639,-0.9592 1.076799,-1.2976 0.452416,-0.3418 0.971106,-0.6035 1.557122,-0.7918 0.585313,-0.1883 1.194348,-0.3384 1.826754,-0.4535 0.633102,-0.1116 1.264808,-0.2058 1.897912,-0.279 0.631707,-0.077 1.232024,-0.1709 1.797454,-0.2861 0.41649,-0.091 0.732167,-0.2302 0.949829,-0.4081 0.216269,-0.1779 0.325797,-0.4918 0.325797,-0.9453 0,-0.2825 -0.07569,-0.5162 -0.227429,-0.7046 -0.151038,-0.1883 -0.340443,-0.3453 -0.56648,-0.4674 -0.227079,-0.1221 -0.478575,-0.2093 -0.752397,-0.2686 -0.27382,-0.056 -0.534039,-0.084 -0.779958,-0.084 -1.380614,0 -2.183944,0.6104 -2.411023,1.8383 l -4.486136,0 z m 4.194873,5.9298 c 0,0.6 0.197784,1.0291 0.595436,1.2837 0.397646,0.2511 0.871345,0.3802 1.419335,0.3802 1.15284,0 1.947794,-0.3383 2.383117,-1.0185 0.434975,-0.6767 0.624384,-1.779 0.567525,-3.3068 -0.340443,0.2093 -0.789723,0.3593 -1.347828,0.443 -0.55741,0.087 -1.101566,0.2058 -1.631067,0.3558 -0.54869,0.1325 -1.017155,0.3279 -1.405386,0.593 -0.387887,0.2616 -0.581132,0.6871 -0.581132,1.2696" />
    <path
       inkscape:connector-curvature="0"
       id="path3088"
       style="fill:#231f20;fill-opacity:1;fill-rule:nonzero;stroke:none"
       d="m 78.015877,1038.83 c 0,0.3767 0.07116,0.6976 0.212081,0.9592 0.140222,0.2652 0.333467,0.4919 0.577292,0.6802 0.225335,0.171 0.492179,0.2966 0.803327,0.3838 0.309749,0.084 0.634846,0.1255 0.97285,0.1255 0.225335,0 0.46916,-0.028 0.732167,-0.084 0.263005,-0.056 0.507878,-0.1465 0.733212,-0.2651 0.225337,-0.1256 0.413348,-0.2825 0.563341,-0.4779 0.149991,-0.1988 0.226034,-0.436 0.226034,-0.715 0,-0.2826 -0.08511,-0.5128 -0.254637,-0.6907 -0.168128,-0.1779 -0.371141,-0.3209 -0.605895,-0.436 -0.235452,-0.1117 -0.48939,-0.1954 -0.761468,-0.2512 -0.273122,-0.056 -0.512063,-0.1116 -0.719262,-0.1674 -0.752747,-0.1884 -1.528863,-0.3593 -2.327654,-0.5093 -0.799838,-0.15 -1.532702,-0.3837 -2.200687,-0.6941 -0.666938,-0.3105 -1.211791,-0.7395 -1.635604,-1.2871 -0.422769,-0.5477 -0.634152,-1.3221 -0.634152,-2.3197 0,-0.886 0.211383,-1.615 0.634849,-2.1906 0.423116,-0.5755 0.96413,-1.0325 1.623392,-1.3743 0.659268,-0.3384 1.383759,-0.5791 2.174529,-0.7186 0.78972,-0.143 1.542122,-0.2128 2.257543,-0.2128 0.809953,0 1.60491,0.07 2.386259,0.2128 0.780306,0.1395 1.49154,0.3837 2.131272,0.7325 0.639733,0.3488 1.161561,0.8302 1.565842,1.4406 0.405323,0.614 0.625426,1.4023 0.663799,2.3615 l -4.444629,0 c 0,-0.5825 -0.205455,-1.008 -0.61915,-1.2732 -0.37498,-0.2441 -0.88216,-0.3662 -1.520145,-0.3662 -0.206502,0 -0.426605,0.011 -0.661357,0.028 -0.235102,0.021 -0.455206,0.066 -0.662057,0.1429 -0.205455,0.073 -0.378814,0.1884 -0.519737,0.3384 -0.140923,0.15 -0.211383,0.3488 -0.211383,0.593 0,0.3384 0.179291,0.6209 0.535433,0.8476 0.357887,0.2267 0.804374,0.4116 1.33946,0.5511 0.53648,0.1431 1.124585,0.2687 1.76362,0.3803 0.63938,0.1151 1.232369,0.2267 1.777569,0.3383 0.732517,0.1535 1.33911,0.3872 1.819779,0.7081 0.478927,0.3209 0.859835,0.6663 1.142029,1.043 0.280798,0.3767 0.479972,0.7639 0.592642,1.158 0.113014,0.3942 0.169173,0.743 0.169173,1.043 0,0.9802 -0.211731,1.8034 -0.635544,2.4696 -0.422766,0.6698 -0.967967,1.2069 -1.634905,1.6081 -0.668332,0.4081 -1.420385,0.6976 -2.257546,0.8755 -0.836463,0.1814 -1.669088,0.2721 -2.496484,0.2721 -0.865064,0 -1.721061,-0.084 -2.567642,-0.2442 -0.845531,-0.1604 -1.602815,-0.443 -2.2708,-0.8476 -0.666938,-0.4046 -1.212839,-0.9453 -1.634907,-1.6255 -0.42416,-0.6767 -0.654031,-1.5243 -0.691004,-2.5429 l 4.569155,0" />
    <path
       inkscape:connector-curvature="0"
       id="path3090"
       style="fill:#231f20;fill-opacity:1;fill-rule:nonzero;stroke:none"
       d="m 97.423713,1044.9762 c -0.28289,0.8127 -0.613919,1.4511 -0.991338,1.9219 -0.375328,0.471 -0.809258,0.8337 -1.298995,1.0884 -0.491484,0.2546 -1.05238,0.4185 -1.683042,0.4953 -0.632057,0.077 -1.353412,0.1116 -2.162317,0.1116 l -2.263127,0 0,-3.8998 1.668741,0 c 0.545898,0 1.0025,-0.1465 1.370154,-0.4395 0.367655,-0.293 0.551132,-0.6907 0.551132,-1.1999 0,-0.1884 -0.05093,-0.4639 -0.15383,-0.8198 -0.104294,-0.3592 -0.221845,-0.7255 -0.354397,-1.1057 -0.13255,-0.3732 -0.264752,-0.7395 -0.395558,-1.0883 -0.132205,-0.3488 -0.236846,-0.6244 -0.310795,-0.8337 l -3.789551,-10.2063 5.091682,0 2.768562,9.5575 0.05651,0 2.766818,-9.5575 4.924599,0 -5.795247,15.9758" />
    <path
       inkscape:connector-curvature="0"
       id="path3092"
       style="fill:#00adef;fill-opacity:1;fill-rule:nonzero;stroke:none"
       d="m 9.3358801,1034.7872 c 0,3.2684 2.0625189,5.8776 5.4121419,6.774 l 0,-13.3562 c -3.427268,0.9314 -5.4121419,3.3487 -5.4121419,6.5822" />
    <path
       inkscape:connector-curvature="0"
       id="path3094"
       style="fill:#00adef;fill-opacity:1;fill-rule:nonzero;stroke:none"
       d="m 24.482915,1042.5344 c -2.064648,1.9848 -4.946437,3.115 -7.749637,3.115 -2.959922,0 -5.529727,-1.0151 -7.6324309,-2.9615 -2.2975551,-2.0999 -3.4271301,-4.7474 -3.4271301,-7.7891 0,-3.659 1.751864,-6.9693 4.867779,-9.0308 1.908552,-1.2488 4.127903,-1.793 7.009026,-1.793 l 0.585385,0 0,17.6049 c 3.542517,-0.6279 5.878894,-3.4324 5.878894,-6.8578 0,-2.4941 -1.245626,-4.6323 -3.426712,-5.8392 l 0,-4.2451 c 4.672687,1.9464 7.165335,5.5287 7.165335,10.0843 0,3.08 -1.090751,5.6473 -3.270509,7.7123 z m -7.768438,-21.1418 c -7.4272229,0 -13.4695365,6.0415 -13.4695365,13.4679 0,7.4263 6.0423136,13.4678 13.4695365,13.4678 7.425898,0 13.467761,-6.0415 13.467761,-13.4678 0,-7.4264 -6.041863,-13.4679 -13.467761,-13.4679" />
    <path
       inkscape:connector-curvature="0"
       id="path3096"
       style="fill:#231f20;fill-opacity:1;fill-rule:nonzero;stroke:none"
       d="m 16.714477,1048.3283 c -7.4272229,0 -13.4695365,-6.0415 -13.4695365,-13.4678 0,-7.4264 6.0423136,-13.4679 13.4695365,-13.4679 7.425898,0 13.467761,6.0415 13.467761,13.4679 0,7.4263 -6.041863,13.4678 -13.467761,13.4678 z m 0,-30.1797 c -9.2166887,0 -16.7144779481173,7.4961 -16.7144779481173,16.7119 0,9.2157 7.4977892481173,16.7153 16.7144779481173,16.7153 9.215679,0 16.711761,-7.4996 16.711761,-16.7153 0,-9.2158 -7.496082,-16.7119 -16.711761,-16.7119" />
    <path
       style="fill:#ffffff;fill-opacity:1;stroke:#ffffff;stroke-width:0.08838835;stroke-opacity:1"
       d="M 14.733063,28.092289 C 12.447643,27.690017 10.345657,26.570887 8.725703,24.893878 7.7594131,23.893556 7.3214289,23.283478 6.7759417,22.178014 5.1940816,18.972275 5.3977445,14.945377 7.296731,11.880771 8.3247656,10.221718 9.9124261,8.7781985 11.639471,7.9323021 13.149721,7.1925905 14.639655,6.8588338 16.788092,6.7789715 l 1.347922,-0.050105 0,8.8090145 0,8.809015 0.243068,-0.05368 c 3.059836,-0.675748 5.155351,-2.899105 5.593554,-5.934801 0.174469,-1.208652 -0.105858,-2.899266 -0.66457,-4.007942 -0.434183,-0.861564 -1.44221,-1.947392 -2.321527,-2.500705 l -0.375651,-0.236379 0,-2.0819735 0,-2.0819736 0.198874,0.061739 c 0.782137,0.242811 2.527085,1.3252913 3.432375,2.1292773 2.33842,2.0767458 3.445966,4.5865178 3.445966,7.8087788 0,2.98076 -0.865851,5.210388 -2.821421,7.265358 -1.707753,1.794557 -3.884455,2.95599 -6.343718,3.384849 -0.945796,0.164934 -2.832458,0.161372 -3.789901,-0.0072 l 0,4e-6 z m 0.04419,-10.604814 0,-6.679276 -0.198874,0.06014 c -1.370943,0.414598 -2.540847,1.090252 -3.434225,1.983364 -0.537314,0.537155 -0.754424,0.83951 -1.082664,1.50776 -0.5845202,1.189997 -0.7152898,1.761272 -0.7072758,3.089771 0.0077,1.276318 0.1871789,2.086659 0.6780658,3.061431 0.593308,1.178151 1.29514,1.953624 2.467482,2.726388 0.524104,0.34547 1.850849,0.925594 2.122812,0.928209 0.145962,0.0014 0.154679,-0.374934 0.154679,-6.67779 l 0,0 z"
       id="path4463"
       inkscape:connector-curvature="0"
       transform="translate(0,1017.3622)" />
  </g>
</svg>
