<svg id="Vrstva_1" data-name="Vrstva 1" xmlns="http://www.w3.org/2000/svg" viewBox="0 0 577.83 208.74">
  <defs>
    <style>
      .cls-1, .cls-2 {
        fill: #008641;
      }

      .cls-2 {
        fill-rule: evenodd;
      }
    </style>
  </defs>
  <title>Excel logo</title>
  <g>
    <rect class="cls-1" x="152.92" y="40.47" width="32.27" height="16.42"/>
    <rect class="cls-1" x="152.92" y="66.6" width="32.27" height="16.42"/>
    <rect class="cls-1" x="152.92" y="92.73" width="32.27" height="16.42"/>
    <rect class="cls-1" x="152.92" y="118.86" width="32.27" height="16.42"/>
    <rect class="cls-1" x="152.92" y="144.99" width="32.27" height="16.42"/>
    <path class="cls-2" d="M421.9,297.32H346.29V279.5L222,298.69V466.83l124.29,21.4v-26.4H421.9c5,0,9.1-3.66,9.1-8.18V305.5C431,301,426.93,297.32,421.9,297.32ZM308.45,419.84l-16.93-1.14-11.44-30-11.44,28.89-15.56-1.37,18.08-34.81-16.7-37.27,16-.92,10.07,27.69L292.43,342l16-.92L289,380.44ZM423.09,455H346l-0.13-14.1h18.56V424.49H345.76l-0.09-9.71h18.79V398.36H345.53l-0.09-9.71h19V372.23H345.38v-9.71h19.09V346.1H345.38v-9.71h19.09V320H345.38V305.05h77.71V455Z" transform="translate(-222 -279.5)"/>
  </g>
  <g>
    <path class="cls-1" d="M555.08,332.08v12.76h-42.9v30.45H552V388H512.17V423.2h44.12v12.61H497.36V332.08h57.71Z" transform="translate(-222 -279.5)"/>
    <path class="cls-1" d="M633,359.8l-24.27,36.07,27.08,39.94H618.35l-14.11-21.95a49,49,0,0,1-5-9.19q-0.53,1.37-1.06,2.54a32.5,32.5,0,0,1-1.63,3q-1.1,1.86-1.93,3.3l-14.34,22.25H563.81L591,395.87,565.86,359.8h17.22l12.44,18.76a57.28,57.28,0,0,1,5,9.49,22.3,22.3,0,0,1,1.33-3.19q0.87-1.75,1.9-3.38t1.86-3.08l11.83-18.6H633Z" transform="translate(-222 -279.5)"/>
    <path class="cls-1" d="M695,361.92l-0.91,12.45a26.81,26.81,0,0,0-13.9-3.42A26.47,26.47,0,0,0,667,374.3a23.35,23.35,0,0,0-9.19,9.29,27.83,27.83,0,0,0-3.27,13.61,31.09,31.09,0,0,0,3.19,14.25,23.71,23.71,0,0,0,8.92,9.78,25,25,0,0,0,13.25,3.49,26.41,26.41,0,0,0,8-1.14,37.11,37.11,0,0,0,7.82-3.72l1.14,13a42.34,42.34,0,0,1-8.78,2.94,47.47,47.47,0,0,1-9.92,1A41.27,41.27,0,0,1,658,431.86a33.68,33.68,0,0,1-13.65-13.63,41.86,41.86,0,0,1-4.79-20.39,40.59,40.59,0,0,1,4.94-20,35.93,35.93,0,0,1,13.69-14,38.37,38.37,0,0,1,19.54-5A49.11,49.11,0,0,1,695,361.92Z" transform="translate(-222 -279.5)"/>
    <path class="cls-1" d="M717.05,401.41q1.52,11.32,8.32,17.88a23.55,23.55,0,0,0,17,6.57,40.66,40.66,0,0,0,11.85-1.75,54.53,54.53,0,0,0,11.92-5.39v13.52a71.3,71.3,0,0,1-12.53,4.33,52.86,52.86,0,0,1-11.85,1.29,42.79,42.79,0,0,1-16-2.88,34,34,0,0,1-12.3-8.28,36.75,36.75,0,0,1-7.82-13,49.34,49.34,0,0,1-2.73-16.74,45.57,45.57,0,0,1,4.4-20.5A32.36,32.36,0,0,1,720,362.64a35.92,35.92,0,0,1,18.72-4.9q12.3,0,19.63,6a32.62,32.62,0,0,1,10.4,15.91,72.73,72.73,0,0,1,3.08,21.72H717.05Zm0.15-11h40.47a38.07,38.07,0,0,0-2.89-11,18.08,18.08,0,0,0-6.3-7.63,17.6,17.6,0,0,0-10.25-2.89,18.65,18.65,0,0,0-13.93,5.73Q718.72,380.38,717.21,390.4Z" transform="translate(-222 -279.5)"/>
    <path class="cls-1" d="M799.83,323.8v112H785.55v-112h14.28Z" transform="translate(-222 -279.5)"/>
  </g>
</svg>
