<svg id="JIRA_-_Blue" data-name="JIRA - Blue" xmlns="http://www.w3.org/2000/svg" viewBox="0 0 448.51 174.17">
  <defs>
    <style>
      .cls-1 {
        fill: #172b4d;
      }
    </style>
  </defs>
  <title>Jira logo</title>
  <path class="cls-1" d="M421.39,108a3.15,3.15,0,0,0-3-2.2H389a3.15,3.15,0,0,0-3,2.2L352,215.88,331,185.68c11.59-4.81,17.46-14.88,17.46-30V139.9c0-23.59-12.32-34.11-39.94-34.11H260.67a3.15,3.15,0,0,0-3.15,3.15V226.56a3.15,3.15,0,0,0,3.15,3.15H280a3.15,3.15,0,0,0,3.15-3.15V189.67h19.79l26.91,38.69a3.15,3.15,0,0,0,2.59,1.35h39.71a3.15,3.15,0,0,0,3-2.26l25.54-86.51a3.18,3.18,0,0,1,3-2.16A3.06,3.06,0,0,1,406.6,141l11.85,41H402.17a3.15,3.15,0,0,0-3,2.3l-4.57,16.24a3.15,3.15,0,0,0,3,4h27.47l7.14,22.9a3.15,3.15,0,0,0,3,2.21h20.25a3.15,3.15,0,0,0,3-4.1Zm-98.52,45.74c0,10-3.84,13.39-15.21,13.39h-24.5V128.69h24.5c12.67,0,15.21,5,15.21,13v12Z" transform="translate(-10.1 -63.7)"/>
  <g>
    <path class="cls-1" d="M234,105.72H214.63a3.15,3.15,0,0,0-3.15,3.15V226.5a3.15,3.15,0,0,0,3.15,3.15H234a3.15,3.15,0,0,0,3.15-3.15V108.87A3.15,3.15,0,0,0,234,105.72Z" transform="translate(-10.1 -63.7)"/>
    <path class="cls-1" d="M357.88,224.45L331,185.62c11.59-4.81,17.46-14.88,17.46-30V139.83c0-23.59-12.32-34.11-39.94-34.11H260.6a3.15,3.15,0,0,0-3.15,3.15V226.5a3.15,3.15,0,0,0,3.15,3.15h19.33a3.15,3.15,0,0,0,3.15-3.15V189.6h19.78l26.91,38.69a3.15,3.15,0,0,0,2.59,1.35h23.12A3.15,3.15,0,0,0,357.88,224.45Zm-74.79-95.82h24.49c12.67,0,15.21,5,15.21,13v12c0,10-3.84,13.39-15.21,13.39H283.08V128.62Z" transform="translate(-10.1 -63.7)"/>
  </g>
  <path class="cls-1" d="M421.31,107.92a3.15,3.15,0,0,0-3-2.2H388.92a3.15,3.15,0,0,0-3,2.2L348.83,225.55a3.15,3.15,0,0,0,3,4.1h20.24a3.15,3.15,0,0,0,3-2.26l25.54-86.51a3.18,3.18,0,0,1,3-2.16,3.05,3.05,0,0,1,2.92,2.25l11.85,41H402.1a3.15,3.15,0,0,0-3,2.3l-4.57,16.24a3.15,3.15,0,0,0,3,4H425l7.14,22.9a3.15,3.15,0,0,0,3,2.21H455.4a3.15,3.15,0,0,0,3-4.1Z" transform="translate(-10.1 -63.7)"/>
  <path class="cls-1" d="M188.68,105.72H169.12a3,3,0,0,0-3,3v92c0,11.57-8.81,15.37-14.78,15.67a3.1,3.1,0,0,0-2.25,1.3,3,3,0,0,0-.39,2.57l4.76,15.48c0.39,1.27,1.75,2.08,4,2.08a34,34,0,0,0,34.27-34.4V108.72A3,3,0,0,0,188.68,105.72Z" transform="translate(-10.1 -63.7)"/>
  <g>
    <g>
      <path class="cls-1" d="M37.15,73.63A10.89,10.89,0,1,0,48,84.52,10.87,10.87,0,0,0,37.15,73.63h0Z" transform="translate(-10.1 -63.7)"/>
      <path class="cls-1" d="M108.64,73.63a10.89,10.89,0,1,0,10.88,10.89,10.87,10.87,0,0,0-10.88-10.89h0Z" transform="translate(-10.1 -63.7)"/>
    </g>
    <path class="cls-1" d="M72.89,63.7A10.89,10.89,0,1,0,83.77,74.59,10.87,10.87,0,0,0,72.89,63.7h0Z" transform="translate(-10.1 -63.7)"/>
  </g>
  <g>
    <path class="cls-1" d="M134.35,104a3.41,3.41,0,0,0-3.29-.47A167.81,167.81,0,0,1,109.39,110a4.26,4.26,0,0,0-3,2.6c-5,13.63-17.68,26.6-31,40.19A3.5,3.5,0,0,1,72.9,154a3.45,3.45,0,0,1-2.5-1.18c-13.33-13.59-26-26.52-31-40.15a4.27,4.27,0,0,0-3-2.6,168.3,168.3,0,0,1-21.69-6.61,3.43,3.43,0,0,0-1.22-.22,3.37,3.37,0,0,0-2.06.69,3.41,3.41,0,0,0-1.32,3c1.13,11.33,5.61,22.41,13.69,34,7.6,10.91,17.5,21,27.08,30.79,17.65,18,34.32,35,35.79,54.72a3.41,3.41,0,0,0,3.4,3.16h20.74a3.41,3.41,0,0,0,3.41-3.58c-0.65-13.18-5.61-26.38-15.17-40.35-2-2.93-4.15-5.78-6.39-8.57a2.48,2.48,0,0,1,.17-3.26l2.08-2.12C104.49,162,114.39,151.89,122,141c8.08-11.61,12.56-22.62,13.69-34A3.49,3.49,0,0,0,134.35,104Z" transform="translate(-10.1 -63.7)"/>
    <path class="cls-1" d="M50.65,187.1a3.16,3.16,0,0,0-2.42-1,3.41,3.41,0,0,0-2.81,1.6c-8.72,13.27-13.23,25.8-13.85,38.39A3.42,3.42,0,0,0,35,229.64h20.7a3.44,3.44,0,0,0,3.41-3.17,46,46,0,0,1,5.78-18.54,4.8,4.8,0,0,0-.42-5.18A191.11,191.11,0,0,0,50.65,187.1Z" transform="translate(-10.1 -63.7)"/>
    <path class="cls-1" d="M72.92,114.13c6.5,0,10.27-.39,11.59-0.39a3.16,3.16,0,0,1,3.14,3.15,3.38,3.38,0,0,1-.25,1.26,55.07,55.07,0,0,1-12.1,17.71,3.33,3.33,0,0,1-2.39.95h0a3.33,3.33,0,0,1-2.39-.95,55.05,55.05,0,0,1-12.1-17.71,3.36,3.36,0,0,1-.25-1.26,3.17,3.17,0,0,1,3.14-3.15c1.32,0,5.09.39,11.59,0.39h0Z" transform="translate(-10.1 -63.7)"/>
  </g>
</svg>
