<svg id="Vrstva_1" data-name="Vrstva 1" xmlns="http://www.w3.org/2000/svg" viewBox="0 0 583.9 217.5">
  <defs>
    <style>
      .cls-1 {
        fill: #5b9d51;
      }
    </style>
  </defs>
  <title>Microsoft Project logo s textem</title>
  <g>
    <path class="cls-1" d="M504,347.67h14.19a106.54,106.54,0,0,1,11.41.45,27,27,0,0,1,6.7,1.6,18.77,18.77,0,0,1,9.5,7.37,21,21,0,0,1,3.5,12,22.25,22.25,0,0,1-1.55,8.36,19.72,19.72,0,0,1-11.2,11.14,29.78,29.78,0,0,1-6.82,1.55,82.19,82.19,0,0,1-9.86.5h-5.66V419.3H504V347.67Zm10.23,8.81v25.43h5.55q8.21,0,13.39-2.7t5.18-10.15a11.93,11.93,0,0,0-1.62-6.27,11.21,11.21,0,0,0-4.68-4.25,19.57,19.57,0,0,0-7.46-1.86Q521.19,356.48,514.23,356.48Z" transform="translate(-222 -273.97)"/>
    <path class="cls-1" d="M556.93,366.81h9l0.47,9.33a18.13,18.13,0,0,1,6.16-7.47,15.52,15.52,0,0,1,8.84-2.54,21.4,21.4,0,0,1,5.3.68v8.91a13.93,13.93,0,0,0-4.61-.89,12.29,12.29,0,0,0-8.44,3,17,17,0,0,0-4.88,7.55,30.23,30.23,0,0,0-1.52,9.57V419.3h-9.65v-32Q557.62,379.56,556.93,366.81Z" transform="translate(-222 -273.97)"/>
    <path class="cls-1" d="M643.44,393.19A29.25,29.25,0,0,1,640,407.45a24.4,24.4,0,0,1-9.66,9.78,28.11,28.11,0,0,1-14,3.49,26.85,26.85,0,0,1-13.75-3.54,25.05,25.05,0,0,1-9.55-9.91,29,29,0,0,1-3.46-14.08,30.48,30.48,0,0,1,2-11.14,26,26,0,0,1,5.62-8.81,25.35,25.35,0,0,1,8.61-5.79,27.75,27.75,0,0,1,10.68-2,28.74,28.74,0,0,1,10.76,2,24.76,24.76,0,0,1,8.66,5.77,25.6,25.6,0,0,1,5.62,8.92A31.19,31.19,0,0,1,643.44,393.19Zm-10.33.24a26.44,26.44,0,0,0-1.23-8.14,19.57,19.57,0,0,0-3.46-6.54,15.62,15.62,0,0,0-5.24-4.17,15.41,15.41,0,0,0-18.51,4.2q-4.75,5.67-4.75,14.33A24.13,24.13,0,0,0,602,403.4a16.71,16.71,0,0,0,5.93,7.09,15.25,15.25,0,0,0,8.63,2.52,15,15,0,0,0,8.44-2.49,16.85,16.85,0,0,0,5.92-7A23.15,23.15,0,0,0,633.11,393.42Z" transform="translate(-222 -273.97)"/>
    <path class="cls-1" d="M663.06,366.65V418.1a64.49,64.49,0,0,1-.94,11.88,15.84,15.84,0,0,1-4.22,8.31q-3.28,3.36-9.94,3.36a42.23,42.23,0,0,1-5.72-.52V433q2,0.21,2.57.21,5.19,0,6.84-3.15t1.65-8.86V366.65h9.75Zm0.47-23.18v10.75H652.89V343.48h10.64Z" transform="translate(-222 -273.97)"/>
    <path class="cls-1" d="M682.39,395.55q1,7.81,5.74,12.35a16.26,16.26,0,0,0,11.77,4.54,28.07,28.07,0,0,0,8.18-1.21,37.66,37.66,0,0,0,8.23-3.72v9.33a49.2,49.2,0,0,1-8.65,3,36.49,36.49,0,0,1-8.18.89,29.55,29.55,0,0,1-11.06-2,23.49,23.49,0,0,1-8.5-5.72,25.37,25.37,0,0,1-5.4-9,34.06,34.06,0,0,1-1.89-11.56,31.49,31.49,0,0,1,3-14.16,22.35,22.35,0,0,1,8.73-9.52,24.81,24.81,0,0,1,12.93-3.38q8.5,0,13.56,4.17a22.54,22.54,0,0,1,7.18,11,50.23,50.23,0,0,1,2.12,15H682.39Zm0.1-7.6h28a26.31,26.31,0,0,0-2-7.58,12.48,12.48,0,0,0-4.35-5.27,12.15,12.15,0,0,0-7.08-2,12.88,12.88,0,0,0-9.62,4Q683.54,381,682.49,387.94Z" transform="translate(-222 -273.97)"/>
    <path class="cls-1" d="M765,368.28l-0.63,8.6a18.52,18.52,0,0,0-9.6-2.36,18.27,18.27,0,0,0-9.12,2.3,16.13,16.13,0,0,0-6.34,6.42,19.21,19.21,0,0,0-2.25,9.4,21.47,21.47,0,0,0,2.2,9.84,16.37,16.37,0,0,0,6.16,6.75,17.25,17.25,0,0,0,9.15,2.41,18.25,18.25,0,0,0,5.56-.79,25.63,25.63,0,0,0,5.4-2.57l0.79,8.95a29.27,29.27,0,0,1-6.07,2,32.74,32.74,0,0,1-6.85.66,28.5,28.5,0,0,1-13.94-3.36,23.26,23.26,0,0,1-9.43-9.41,28.92,28.92,0,0,1-3.31-14.08,28,28,0,0,1,3.41-13.82,24.82,24.82,0,0,1,9.45-9.65,26.5,26.5,0,0,1,13.5-3.49A33.91,33.91,0,0,1,765,368.28Z" transform="translate(-222 -273.97)"/>
    <path class="cls-1" d="M790.91,351.66V367h13.95v7.6H790.91V395.2a60.16,60.16,0,0,0,.63,10.32,6.89,6.89,0,0,0,2.6,4.48,8.59,8.59,0,0,0,5.43,1.65A14.36,14.36,0,0,0,805.9,410v8.43a29.62,29.62,0,0,1-9,1.48q-6.83,0-10.3-2.78a12.39,12.39,0,0,1-4.44-7.29,57.32,57.32,0,0,1-1-11.69V374.63H769.09V367h12.06V355Z" transform="translate(-222 -273.97)"/>
  </g>
  <g>
    <path class="cls-1" d="M292.38,363.09c0-5.62-3.87-7.62-15.37-7.62v23.63c16.25,0,15.38-7.5,15.38-7.5v-8.5Z" transform="translate(-222 -273.97)"/>
    <path class="cls-1" d="M429.33,295H350.5v8h78.83a1.62,1.62,0,0,1,1.67,1.55v153.4a1.62,1.62,0,0,1-1.67,1.55H350.5v8h78.83a9.62,9.62,0,0,0,9.67-9.55V304.52A9.62,9.62,0,0,0,429.33,295Z" transform="translate(-222 -273.97)"/>
    <path class="cls-1" d="M364.55,439.85a5.12,5.12,0,0,0,7.24,0l21.27-21.27a5.12,5.12,0,0,0,0-7.24l-21.27-21.27a5.12,5.12,0,0,0-7.24,0l-14,14V274L222,296V469l128.5,22.5V425.81ZM308.75,372h0v1.74c0,5.25-3.5,19.25-20.5,19.25H276.63v29.67L261.5,421V342l28.75-2s18.5,0.25,18.5,19.5V372Z" transform="translate(-222 -273.97)"/>
    <path class="cls-1" d="M396.5,363.67H375.62l21.27,21.27a5.12,5.12,0,0,0,7.24,0l21.27-21.27H404.5v-42h-54v8h46v34Z" transform="translate(-222 -273.97)"/>
  </g>
</svg>
