<?xml version="1.0" encoding="UTF-8" standalone="no"?>
<!-- Created with Inkscape (http://www.inkscape.org/) -->

<svg
   xmlns:dc="http://purl.org/dc/elements/1.1/"
   xmlns:cc="http://creativecommons.org/ns#"
   xmlns:rdf="http://www.w3.org/1999/02/22-rdf-syntax-ns#"
   xmlns:svg="http://www.w3.org/2000/svg"
   xmlns="http://www.w3.org/2000/svg"
   version="1.1"
   width="170"
   height="35"
   id="svg2">
  <metadata
     id="metadata23">
    <rdf:RDF>
      <cc:Work
         rdf:about="">
        <dc:format>image/svg+xml</dc:format>
        <dc:type
           rdf:resource="http://purl.org/dc/dcmitype/StillImage" />
        <dc:title></dc:title>
      </cc:Work>
    </rdf:RDF>
  </metadata>
  <defs
     id="defs21" />
  <path
     d="m 45.481007,20.1528 c 0.03837,1.0115 0.339746,1.8173 0.905527,2.4173 0.566483,0.5999 1.359692,0.8999 2.378933,0.8999 0.584618,0 1.132611,-0.1291 1.642233,-0.3942 0.509272,-0.2616 0.877971,-0.6662 1.104005,-1.2138 l 4.482997,0 c -0.227079,0.8511 -0.579385,1.5801 -1.060751,2.194 -0.479627,0.6105 -1.044707,1.1162 -1.694554,1.5104 -0.649848,0.3977 -1.364921,0.6872 -2.146969,0.8755 -0.781002,0.1884 -1.576653,0.2861 -2.386606,0.2861 -1.187025,0 -2.274289,-0.1779 -3.262836,-0.5233 -0.989943,-0.3488 -1.836874,-0.858 -2.543228,-1.5243 -0.706006,-0.6697 -1.252601,-1.4894 -1.63909,-2.4592 -0.385443,-0.9697 -0.578688,-2.0649 -0.578688,-3.2893 0,-1.1302 0.207197,-2.1661 0.621592,-3.108 0.415093,-0.9418 0.984012,-1.751 1.709901,-2.4277 0.725191,-0.6767 1.566889,-1.2104 2.527879,-1.5941 0.960643,-0.3872 1.977445,-0.5791 3.051103,-0.5791 1.31818,0 2.466834,0.2302 3.44666,0.6907 0.978784,0.4639 1.789084,1.0988 2.429863,1.908 0.640427,0.8093 1.110281,1.7581 1.41236,2.8394 0.300681,1.0848 0.423463,2.2499 0.366257,3.4917 l -10.766588,0 z m 5.967911,-2.6929 c -0.03767,-0.8232 -0.319864,-1.5278 -0.848323,-2.1103 -0.528458,-0.5791 -1.197487,-0.8721 -2.00814,-0.8721 -0.848324,0 -1.541773,0.2721 -2.078603,0.8163 -0.538222,0.5441 -0.881807,1.2661 -1.032845,2.1661 l 5.967911,0"
     id="path3084"
     style="fill:#231f20;fill-opacity:1;fill-rule:nonzero;stroke:none" />
  <path
     d="m 57.902732,16.1693 c 0.03697,-0.9628 0.263705,-1.7616 0.67845,-2.4034 0.414395,-0.6418 0.951223,-1.1511 1.611538,-1.5278 0.659259,-0.3767 1.389687,-0.6383 2.190219,-0.7883 0.800886,-0.1535 1.62514,-0.2268 2.473463,-0.2268 0.865417,0 1.709551,0.059 2.528577,0.1849 0.820415,0.1186 1.55084,0.3593 2.19022,0.7186 0.640779,0.3558 1.154935,0.8581 1.540725,1.4964 0.386489,0.6418 0.579387,1.479 0.579387,2.515 l 0,6.4147 c 0,0.6209 0.02373,1.2558 0.07116,1.9046 0.0464,0.6522 0.211733,1.2662 0.495321,1.8522 l -4.832161,0 c -0.09488,-0.2267 -0.155574,-0.4535 -0.184527,-0.6802 -0.02721,-0.2267 -0.06069,-0.464 -0.09802,-0.7081 -0.625428,0.6558 -1.370502,1.1232 -2.232432,1.3952 -0.861578,0.2721 -1.738504,0.4117 -2.630079,0.4117 -0.694497,0 -1.346783,-0.091 -1.957913,-0.2721 -0.610079,-0.1779 -1.140978,-0.45 -1.591999,-0.8162 -0.450325,-0.3698 -0.803327,-0.8302 -1.056567,-1.3849 -0.25359,-0.5546 -0.380559,-1.2069 -0.380559,-1.9603 0,-0.7918 0.1329,-1.4511 0.396952,-1.9778 0.264055,-0.5267 0.622639,-0.9592 1.076799,-1.2976 0.452416,-0.3418 0.971106,-0.6035 1.557122,-0.7918 0.585313,-0.1883 1.194348,-0.3384 1.826754,-0.4535 0.633102,-0.1116 1.264808,-0.2058 1.897912,-0.279 0.631707,-0.077 1.232024,-0.1709 1.797454,-0.2861 0.41649,-0.091 0.732167,-0.2302 0.949829,-0.4081 0.216269,-0.1779 0.325797,-0.4918 0.325797,-0.9453 0,-0.2825 -0.07569,-0.5162 -0.227429,-0.7046 -0.151038,-0.1883 -0.340443,-0.3453 -0.56648,-0.4674 -0.227079,-0.1221 -0.478575,-0.2093 -0.752397,-0.2686 -0.27382,-0.056 -0.534039,-0.084 -0.779958,-0.084 -1.380614,0 -2.183944,0.6104 -2.411023,1.8383 l -4.486136,0 z m 4.194873,5.9298 c 0,0.6 0.197784,1.0291 0.595436,1.2837 0.397646,0.2511 0.871345,0.3802 1.419335,0.3802 1.15284,0 1.947794,-0.3383 2.383117,-1.0185 0.434975,-0.6767 0.624384,-1.779 0.567525,-3.3068 -0.340443,0.2093 -0.789723,0.3593 -1.347828,0.443 -0.55741,0.087 -1.101566,0.2058 -1.631067,0.3558 -0.54869,0.1325 -1.017155,0.3279 -1.405386,0.593 -0.387887,0.2616 -0.581132,0.6871 -0.581132,1.2696"
     id="path3086"
     style="fill:#231f20;fill-opacity:1;fill-rule:nonzero;stroke:none" />
  <path
     d="m 78.015877,21.4678 c 0,0.3767 0.07116,0.6976 0.212081,0.9592 0.140222,0.2652 0.333467,0.4919 0.577292,0.6802 0.225335,0.171 0.492179,0.2966 0.803327,0.3838 0.309749,0.084 0.634846,0.1255 0.97285,0.1255 0.225335,0 0.46916,-0.028 0.732167,-0.084 0.263005,-0.056 0.507878,-0.1465 0.733212,-0.2651 0.225337,-0.1256 0.413348,-0.2825 0.563341,-0.4779 0.149991,-0.1988 0.226034,-0.436 0.226034,-0.715 0,-0.2826 -0.08511,-0.5128 -0.254637,-0.6907 -0.168128,-0.1779 -0.371141,-0.3209 -0.605895,-0.436 -0.235452,-0.1117 -0.48939,-0.1954 -0.761468,-0.2512 -0.273122,-0.056 -0.512063,-0.1116 -0.719262,-0.1674 -0.752747,-0.1884 -1.528863,-0.3593 -2.327654,-0.5093 -0.799838,-0.15 -1.532702,-0.3837 -2.200687,-0.6941 -0.666938,-0.3105 -1.211791,-0.7395 -1.635604,-1.2871 -0.422769,-0.5477 -0.634152,-1.3221 -0.634152,-2.3197 0,-0.886 0.211383,-1.615 0.634849,-2.1906 0.423116,-0.5755 0.96413,-1.0325 1.623392,-1.3743 0.659268,-0.3384 1.383759,-0.5791 2.174529,-0.7186 0.78972,-0.143 1.542122,-0.2128 2.257543,-0.2128 0.809953,0 1.60491,0.07 2.386259,0.2128 0.780306,0.1395 1.49154,0.3837 2.131272,0.7325 0.639733,0.3488 1.161561,0.8302 1.565842,1.4406 0.405323,0.614 0.625426,1.4023 0.663799,2.3615 l -4.444629,0 c 0,-0.5825 -0.205455,-1.008 -0.61915,-1.2732 -0.37498,-0.2441 -0.88216,-0.3662 -1.520145,-0.3662 -0.206502,0 -0.426605,0.011 -0.661357,0.028 -0.235102,0.021 -0.455206,0.066 -0.662057,0.1429 -0.205455,0.073 -0.378814,0.1884 -0.519737,0.3384 -0.140923,0.15 -0.211383,0.3488 -0.211383,0.593 0,0.3384 0.179291,0.6209 0.535433,0.8476 0.357887,0.2267 0.804374,0.4116 1.33946,0.5511 0.53648,0.1431 1.124585,0.2687 1.76362,0.3803 0.63938,0.1151 1.232369,0.2267 1.777569,0.3383 0.732517,0.1535 1.33911,0.3872 1.819779,0.7081 0.478927,0.3209 0.859835,0.6663 1.142029,1.043 0.280798,0.3767 0.479972,0.7639 0.592642,1.158 0.113014,0.3942 0.169173,0.743 0.169173,1.043 0,0.9802 -0.211731,1.8034 -0.635544,2.4696 -0.422766,0.6698 -0.967967,1.2069 -1.634905,1.6081 -0.668332,0.4081 -1.420385,0.6976 -2.257546,0.8755 -0.836463,0.1814 -1.669088,0.2721 -2.496484,0.2721 -0.865064,0 -1.721061,-0.084 -2.567642,-0.2442 -0.845531,-0.1604 -1.602815,-0.443 -2.2708,-0.8476 -0.666938,-0.4046 -1.212839,-0.9453 -1.634907,-1.6255 -0.42416,-0.6767 -0.654031,-1.5243 -0.691004,-2.5429 l 4.569155,0"
     id="path3088"
     style="fill:#231f20;fill-opacity:1;fill-rule:nonzero;stroke:none" />
  <path
     d="m 97.423713,27.614 c -0.28289,0.8127 -0.613919,1.4511 -0.991338,1.9219 -0.375328,0.471 -0.809258,0.8337 -1.298995,1.0884 -0.491484,0.2546 -1.05238,0.4185 -1.683042,0.4953 -0.632057,0.077 -1.353412,0.1116 -2.162317,0.1116 l -2.263127,0 0,-3.8998 1.668741,0 c 0.545898,0 1.0025,-0.1465 1.370154,-0.4395 0.367655,-0.293 0.551132,-0.6907 0.551132,-1.1999 0,-0.1884 -0.05093,-0.4639 -0.15383,-0.8198 -0.104294,-0.3592 -0.221845,-0.7255 -0.354397,-1.1057 -0.13255,-0.3732 -0.264752,-0.7395 -0.395558,-1.0883 -0.132205,-0.3488 -0.236846,-0.6244 -0.310795,-0.8337 l -3.789551,-10.2063 5.091682,0 2.768562,9.5575 0.05651,0 2.766818,-9.5575 4.924598,0 -5.795246,15.9758"
     id="path3090"
     style="fill:#231f20;fill-opacity:1;fill-rule:nonzero;stroke:none" />
  <path
     d="m 9.3358801,17.425 c 0,3.2684 2.0625189,5.8776 5.4121419,6.774 l 0,-13.3562 c -3.427268,0.9314 -5.4121419,3.3487 -5.4121419,6.5822"
     id="path3092"
     style="fill:#00adef;fill-opacity:1;fill-rule:nonzero;stroke:none" />
  <path
     d="m 24.482915,25.1722 c -2.064648,1.9848 -4.946437,3.115 -7.749637,3.115 -2.959922,0 -5.529727,-1.0151 -7.6324309,-2.9615 C 6.803292,23.2258 5.673717,20.5783 5.673717,17.5366 c 0,-3.659 1.751864,-6.9693 4.867779,-9.0308 1.908552,-1.2488 4.127903,-1.793 7.009026,-1.793 l 0.585385,0 0,17.6049 c 3.542517,-0.6279 5.878894,-3.4324 5.878894,-6.8578 0,-2.4941 -1.245626,-4.6323 -3.426712,-5.8392 l 0,-4.2451 c 4.672687,1.9464 7.165335,5.5287 7.165335,10.0843 0,3.08 -1.090751,5.6473 -3.270509,7.7123 z M 16.714477,4.0304 c -7.4272229,0 -13.4695365,6.0415 -13.4695365,13.4679 0,7.4263 6.0423136,13.4678 13.4695365,13.4678 7.425898,0 13.467761,-6.0415 13.467761,-13.4678 0,-7.4264 -6.041863,-13.4679 -13.467761,-13.4679"
     id="path3094"
     style="fill:#00adef;fill-opacity:1;fill-rule:nonzero;stroke:none" />
  <path
     d="m 16.714477,30.9661 c -7.4272229,0 -13.4695365,-6.0415 -13.4695365,-13.4678 0,-7.4264 6.0423136,-13.4679 13.4695365,-13.4679 7.425898,0 13.467761,6.0415 13.467761,13.4679 0,7.4263 -6.041863,13.4678 -13.467761,13.4678 z m 0,-30.1797 C 7.4977883,0.7864 -9.481173e-7,8.2825 -9.481173e-7,17.4983 -9.481173e-7,26.714 7.4977883,34.2136 16.714477,34.2136 c 9.215679,0 16.711761,-7.4996 16.711761,-16.7153 0,-9.2158 -7.496082,-16.7119 -16.711761,-16.7119"
     id="path3096"
     style="fill:#231f20;fill-opacity:1;fill-rule:nonzero;stroke:none" />
  <path
     d="M 14.733063,28.0923 C 12.447643,27.69 10.345657,26.5709 8.725703,24.8939 7.7594131,23.8936 7.3214289,23.2835 6.7759417,22.178 5.1940816,18.9723 5.3977445,14.9454 7.296731,11.8808 8.3247656,10.2217 9.9124261,8.7782 11.639471,7.9323 13.149721,7.1926 14.639655,6.8588 16.788092,6.779 l 1.347922,-0.05 0,8.809 0,8.809 0.243068,-0.054 c 3.059836,-0.6757 5.155351,-2.8991 5.593554,-5.9348 0.174469,-1.2086 -0.105858,-2.8993 -0.66457,-4.0079 -0.434183,-0.8616 -1.44221,-1.9474 -2.321527,-2.5007 l -0.375651,-0.2364 0,-2.082 0,-2.082 0.198874,0.062 c 0.782137,0.2428 2.527085,1.3253 3.432375,2.1293 2.33842,2.0767 3.445966,4.5865 3.445966,7.8087 0,2.9808 -0.865851,5.2104 -2.821421,7.2654 -1.707753,1.7946 -3.884455,2.956 -6.343718,3.3848 -0.945796,0.165 -2.832458,0.1614 -3.789901,-0.01 l 0,0 z m 0.04419,-10.6048 0,-6.6793 -0.198874,0.06 c -1.370943,0.4146 -2.540847,1.0903 -3.434225,1.9834 -0.537314,0.5372 -0.754424,0.8395 -1.082664,1.5078 -0.5845202,1.19 -0.7152898,1.7612 -0.7072758,3.0897 0.0077,1.2764 0.1871789,2.0867 0.6780658,3.0615 0.593308,1.1781 1.29514,1.9536 2.467482,2.7264 0.524104,0.3454 1.850849,0.9255 2.122812,0.9282 0.145962,0 0.154679,-0.375 0.154679,-6.6778 l 0,0 z"
     id="path4463"
     style="fill:#ffffff;fill-opacity:1;stroke:#ffffff;stroke-width:0.08838835;stroke-opacity:1" />
  <path
     d="m 105.97087,18.6199 2.24833,0 c 1.03535,0 1.83945,-0.231962 2.41196,-0.695142 0.5725,-0.463206 0.8584,-1.185646 0.8584,-2.166334 0,-0.899407 -0.22493,-1.601208 -0.67446,-2.105027 -0.44952,-0.504193 -1.26729,-0.756475 -2.4526,-0.756475 l -2.39163,0 0,5.722978 z m -1.30828,-6.826625 4.35371,0 c 1.23996,0 2.18001,0.320566 2.82048,0.960368 0.64083,0.640813 0.96107,1.539875 0.96107,2.698197 0,0.436201 -0.048,0.858048 -0.1433,1.267298 -0.0953,0.408532 -0.24526,0.776769 -0.44953,1.103647 -0.20462,0.326905 -0.4737,0.606139 -0.8076,0.837756 -0.33391,0.231936 -0.74559,0.395215 -1.23646,0.490849 l 0,0.04067 c 0.91271,0.08163 1.54969,0.3917 1.91127,0.929875 0.36088,0.538521 0.55464,1.380111 0.58232,2.524078 l 0.041,1.594177 c 0.0133,0.395562 0.0543,0.780284 0.12228,1.154833 0.0683,0.375242 0.23194,0.705635 0.49087,0.9919 l -1.53252,0 c -0.15066,-0.259287 -0.24912,-0.565872 -0.29677,-0.920074 -0.0483,-0.354229 -0.0785,-0.728778 -0.0918,-1.12434 l -0.041,-1.226312 c -0.0277,-0.640121 -0.082,-1.178296 -0.16397,-1.614151 -0.0816,-0.436575 -0.22809,-0.786942 -0.43937,-1.05286 -0.21127,-0.265945 -0.50067,-0.453379 -0.86856,-0.562356 -0.36789,-0.108605 -0.8444,-0.16328 -1.43022,-0.16328 l -2.47362,0 0,6.663373 -1.30828,0 0,-14.593645"
     id="path3132"
     style="fill:#ffffff;fill-opacity:1;fill-rule:nonzero;stroke:none;enable-background:new" />
  <path
     d="m 114.26941,11.793305 7.23515,0 0,1.103647 -5.92722,0 0,5.314447 5.53901,0 0,1.103301 -5.53901,0 0,5.967858 6.11117,0 0,1.104392 -7.4191,0 0,-14.593645"
     id="path3134"
     style="fill:#ffffff;fill-opacity:1;fill-rule:nonzero;stroke:none;enable-background:new" />
  <path
     d="m 124.03845,25.282558 2.12604,0 c 0.7081,0 1.32125,-0.09843 1.83945,-0.296039 0.5175,-0.197261 0.9404,-0.534686 1.26694,-1.011528 0.32725,-0.476868 0.56865,-1.110677 0.72597,-1.900761 0.15626,-0.790085 0.2351,-1.778496 0.2351,-2.963796 0,-1.198962 -0.0788,-2.197173 -0.2351,-2.994608 -0.15732,-0.796742 -0.39872,-1.434067 -0.72597,-1.910935 -0.32654,-0.476842 -0.74944,-0.813894 -1.26694,-1.011874 -0.5182,-0.196889 -1.13135,-0.296065 -1.83945,-0.296065 l -2.12604,0 0,12.385606 z m -1.30794,-13.489253 3.51562,0 c 1.06267,0 1.93475,0.156248 2.61622,0.470184 0.68147,0.313242 1.22314,0.776422 1.62502,1.389938 0.40152,0.613143 0.67762,1.375903 0.82757,2.2886 0.14996,0.913416 0.22494,1.962095 0.22494,3.148087 0,1.1853 -0.075,2.234671 -0.22494,3.147395 -0.14995,0.913416 -0.42605,1.67615 -0.82757,2.289319 -0.40188,0.613143 -0.94355,1.076323 -1.62502,1.389912 -0.68147,0.313243 -1.55355,0.47021 -2.61622,0.47021 l -3.51562,0 0,-14.593645"
     id="path3136"
     style="fill:#ffffff;fill-opacity:1;fill-rule:nonzero;stroke:none;enable-background:new" />
  <path
     d="m 133.21571,11.793305 2.26865,0 3.51527,12.958455 0.041,0 3.51562,-12.958455 2.14602,0 0,14.593645 -1.30828,0 0,-13.367705 -0.0406,0 -3.78085,13.367705 -1.227,0 -3.78085,-13.367705 -0.0406,0 0,13.367705 -1.30828,0 0,-14.593645"
     id="path3138"
     style="fill:#ffffff;fill-opacity:1;fill-rule:nonzero;stroke:none;enable-background:new" />
  <path
     d="m 146.582,26.38695 1.30828,0 0,-14.593645 -1.30828,0 0,14.593645 z"
     id="path3140"
     style="fill:#ffffff;fill-opacity:1;fill-rule:nonzero;stroke:none;enable-background:new" />
  <path
     d="m 149.6481,11.793305 1.7578,0 5.57966,12.713203 0.041,0 0,-12.713203 1.30828,0 0,14.593645 -1.7578,0 -5.58001,-12.713576 -0.041,0 0,12.713576 -1.30793,0 0,-14.593645"
     id="path3142"
     style="fill:#ffffff;fill-opacity:1;fill-rule:nonzero;stroke:none;enable-background:new" />
  <path
     d="m 160.01031,11.793305 7.23551,0 0,1.103647 -5.92758,0 0,5.314447 5.53902,0 0,1.103301 -5.53902,0 0,5.967858 6.11117,0 0,1.104392 -7.4191,0 0,-14.593645"
     id="path3144"
     style="fill:#ffffff;fill-opacity:1;fill-rule:nonzero;stroke:none;enable-background:new" />
</svg>
