<svg id="Layer_1" data-name="Layer 1" xmlns="http://www.w3.org/2000/svg" xmlns:xlink="http://www.w3.org/1999/xlink" viewBox="0 0 480.36 112.85">
  <defs>
    <style>
      .cls-1 {
        fill: none;
      }

      .cls-2 {
        fill: #2e3c54;
      }

      .cls-3 {
        clip-path: url(#clip-path);
      }

      .cls-4 {
        fill: url(#radial-gradient);
      }
    </style>
    <clipPath id="clip-path" transform="translate(-152.37 -259.37)">
      <path class="cls-1" d="M231.21,282.79a22.41,22.41,0,1,1-22.41-22.41A22.41,22.41,0,0,1,231.21,282.79Zm-51.53,28a22.41,22.41,0,1,0,22.41,22.41A22.41,22.41,0,0,0,179.68,310.8Zm58.23,0a22.41,22.41,0,1,0,22.41,22.41A22.41,22.41,0,0,0,237.91,310.8Z"/>
    </clipPath>
    <radialGradient id="radial-gradient" cx="-3842.32" cy="1288.28" r="75.23" gradientTransform="translate(-909.79 -2825.32) rotate(-90) scale(0.75)" gradientUnits="userSpaceOnUse">
      <stop offset="0" stop-color="#ffb900"/>
      <stop offset="0.6" stop-color="#f95d8f"/>
      <stop offset="1" stop-color="#f95353"/>
    </radialGradient>
  </defs>
  <title>Asana logo</title>
  <g>
    <g>
      <path class="cls-2" d="M336.55,333.05c0.29,3.28,2.91,7.44,7.45,7.44h2.66a1.88,1.88,0,0,0,1.87-1.87V280.21h0a1.87,1.87,0,0,0-1.86-1.77h-8.24a1.88,1.88,0,0,0-1.86,1.77h0V285c-5-6.22-13-8.79-21-8.79a32.84,32.84,0,0,0,0,65.67h0c8,0,16.67-3.1,21-8.79h0Zm-20.95-2.71A21.35,21.35,0,1,1,336.48,309,21.12,21.12,0,0,1,315.6,330.35Z" transform="translate(-152.37 -259.37)"/>
      <path class="cls-2" d="M470.74,333.05c0.29,3.28,2.91,7.44,7.45,7.44h2.66a1.88,1.88,0,0,0,1.87-1.87V280.21h0a1.87,1.87,0,0,0-1.86-1.77h-8.24a1.88,1.88,0,0,0-1.87,1.77h0V285c-5-6.22-13-8.79-21-8.79a32.84,32.84,0,0,0,0,65.67h0c8,0,16.67-3.1,21-8.79h0Zm-20.95-2.71A21.35,21.35,0,1,1,470.67,309,21.12,21.12,0,0,1,449.79,330.35Z" transform="translate(-152.37 -259.37)"/>
      <path class="cls-2" d="M620.75,333.05c0.29,3.28,2.91,7.44,7.45,7.44h2.66a1.88,1.88,0,0,0,1.88-1.87V280.21h0a1.87,1.87,0,0,0-1.86-1.77h-8.24a1.88,1.88,0,0,0-1.86,1.77h0V285c-5-6.22-13-8.79-21-8.79a32.84,32.84,0,1,0,0,65.67h0c8,0,16.67-3.1,21-8.79h0Zm-20.95-2.71A21.35,21.35,0,1,1,620.68,309,21.12,21.12,0,0,1,599.8,330.35Z" transform="translate(-152.37 -259.37)"/>
      <path class="cls-2" d="M556.52,335.06V304.84h0c0-17-10.75-28.53-27.89-28.53-8.18,0-15.67,4.69-17.26,8.8-0.51-3.18-2.2-6.52-7.43-6.52h-2.67a1.88,1.88,0,0,0-1.87,1.88V333.2h0v5.67h0a1.87,1.87,0,0,0,1.86,1.77h8.24a1.92,1.92,0,0,0,.37,0l0.16,0,0.18-.06,0.21-.11,0.1-.06a1.92,1.92,0,0,0,.23-0.18l0,0a2,2,0,0,0,.22-0.26h0a1.86,1.86,0,0,0,.35-1h0v-34.5a16.57,16.57,0,0,1,33.14,0v28.84h0s0,0.05,0,.08v5.59h0a1.88,1.88,0,0,0,1.86,1.77h8.24a1.9,1.9,0,0,0,.37,0l0.14,0,0.2-.06,0.19-.1,0.12-.06a2,2,0,0,0,.21-0.17l0.05,0a2,2,0,0,0,.21-0.24v0a1.86,1.86,0,0,0,.35-1h0v-3.81h0Z" transform="translate(-152.37 -259.37)"/>
      <path class="cls-2" d="M368.21,324.69a30.37,30.37,0,0,0,17.27,5.66c5.49,0,11.17-2.85,11.17-7.81,0-6.62-12.38-7.65-20.15-10.29s-14.48-8.11-14.48-17c0-13.54,12.06-19.13,23.32-19.13,7.13,0,14.49,2.35,19.27,5.72a1.91,1.91,0,0,1,.64,2.68l-4.56,6.51a1.82,1.82,0,0,1-2.69.57,22.68,22.68,0,0,0-12.66-4c-6.87,0-11,3.17-11,7.1,0,4.72,5.38,6.2,11.68,7.81,11,3,23,6.52,23,20,0,11.93-11.16,19.3-23.49,19.3a39.47,39.47,0,0,1-24-7.56,2,2,0,0,1-.42-2.68l4.53-6.47A1.8,1.8,0,0,1,368.21,324.69Z" transform="translate(-152.37 -259.37)"/>
    </g>
    <g class="cls-3">
      <circle class="cls-4" cx="56.42" cy="56.43" r="56.42"/>
    </g>
  </g>
</svg>
